AbhayaLibreb-Regular.ufo
<glyph name="ampersand" format="1">
  <advance width="592"/>
  <unicode hex="0026"/>
  <outline>
    <contour>
      <point x="565" y="0" type="line"/>
      <point x="416" y="154"/>
      <point x="226" y="392"/>
      <point x="226" y="504" type="curve" smooth="yes"/>
      <point x="226" y="558"/>
      <point x="260" y="585"/>
      <point x="300" y="585" type="curve" smooth="yes"/>
      <point x="345" y="585"/>
      <point x="374" y="555"/>
      <point x="374" y="510" type="curve" smooth="yes"/>
      <point x="374" y="465"/>
      <point x="326" y="400"/>
      <point x="223" y="388" type="curve"/>
      <point x="229" y="365" type="line"/>
      <point x="340" y="376"/>
      <point x="402" y="450"/>
      <point x="402" y="510" type="curve" smooth="yes"/>
      <point x="402" y="575"/>
      <point x="352" y="610"/>
      <point x="298" y="610" type="curve" smooth="yes"/>
      <point x="212" y="610"/>
      <point x="159" y="562"/>
      <point x="159" y="487" type="curve" smooth="yes"/>
      <point x="159" y="370"/>
      <point x="339" y="131"/>
      <point x="461" y="0" type="curve"/>
    </contour>
    <contour>
      <point x="526" y="319" type="curve"/>
      <point x="498" y="326" type="line"/>
      <point x="498" y="141"/>
      <point x="403" y="20"/>
      <point x="269" y="20" type="curve" smooth="yes"/>
      <point x="160" y="20"/>
      <point x="120" y="105"/>
      <point x="120" y="202" type="curve" smooth="yes"/>
      <point x="120" y="277"/>
      <point x="157" y="332"/>
      <point x="210" y="346" type="curve"/>
      <point x="199" y="368" type="line"/>
      <point x="99" y="341"/>
      <point x="35" y="275"/>
      <point x="35" y="176" type="curve" smooth="yes"/>
      <point x="35" y="78"/>
      <point x="108" y="-10"/>
      <point x="237" y="-10" type="curve" smooth="yes"/>
      <point x="448" y="-10"/>
      <point x="526" y="158"/>
    </contour>
    <contour>
      <point x="602" y="0" type="line"/>
      <point x="602" y="22"/>
      <point x="595" y="26"/>
      <point x="577" y="26" type="curve" smooth="yes"/>
      <point x="563" y="26" type="line"/>
      <point x="460" y="26" type="line"/>
      <point x="473" y="0" type="line"/>
    </contour>
    <contour>
      <point x="559" y="320" type="line" smooth="yes"/>
      <point x="578" y="320"/>
      <point x="587" y="322"/>
      <point x="587" y="347" type="curve"/>
      <point x="443" y="347" type="line"/>
      <point x="443" y="321" type="line"/>
      <point x="504" y="321" type="line"/>
      <point x="528" y="319" type="line"/>
    </contour>
  </outline>
</glyph>
<glyph name="hyphen" format="1">
  <advance width="380"/>
  <unicode hex="002D"/>
  <outline>
    <contour>
      <point x="50" y="200" type="line"/>
      <point x="330" y="200" type="line"/>
      <point x="330" y="240" type="line"/>
      <point x="50" y="240" type="line"/>
    </contour>
  </outline>
</glyph>
<glyph name="zero" format="1">
  <advance width="523"/>
  <unicode hex="0030"/>
  <outline>
    <contour>
      <point x="265" y="540" type="curve" smooth="yes"/>
      <point x="145" y="540"/>
      <point x="45" y="446"/>
      <point x="45" y="269" type="curve" smooth="yes"/>
      <point x="45" y="86"/>
      <point x="140" y="-10"/>
      <point x="261" y="-10" type="curve" smooth="yes"/>
      <point x="381" y="-10"/>
      <point x="478" y="88"/>
      <point x="478" y="266" type="curve" smooth="yes"/>
      <point x="478" y="451"/>
      <point x="385" y="540"/>
    </contour>
    <contour>
      <point x="264" y="16" type="curve" smooth="yes"/>
      <point x="181" y="16"/>
      <point x="133" y="78"/>
      <point x="133" y="266" type="curve" smooth="yes"/>
      <point x="133" y="451"/>
      <point x="180" y="514"/>
      <point x="263" y="514" type="curve" smooth="yes"/>
      <point x="345" y="514"/>
      <point x="390" y="459"/>
      <point x="390" y="269" type="curve" smooth="yes"/>
      <point x="390" y="87"/>
      <point x="346" y="16"/>
    </contour>
  </outline>
</glyph>
<glyph name="three" format="1">
  <advance width="498"/>
  <unicode hex="0033"/>
  <outline>
    <contour>
      <point x="443" y="112" type="curve" smooth="yes"/>
      <point x="443" y="193"/>
      <point x="386" y="278"/>
      <point x="273" y="278" type="curve" smooth="yes"/>
      <point x="235" y="278"/>
      <point x="190" y="269"/>
      <point x="149" y="251" type="curve"/>
      <point x="171" y="233" type="line"/>
      <point x="195" y="243"/>
      <point x="221" y="248"/>
      <point x="242" y="248" type="curve" smooth="yes"/>
      <point x="313" y="248"/>
      <point x="360" y="186"/>
      <point x="360" y="98" type="curve" smooth="yes"/>
      <point x="360" y="21"/>
      <point x="329" y="-55"/>
      <point x="211" y="-55" type="curve" smooth="yes"/>
      <point x="94" y="-55"/>
      <point x="181" y="94"/>
      <point x="86" y="94" type="curve" smooth="yes"/>
      <point x="57" y="94"/>
      <point x="40" y="73"/>
      <point x="40" y="45" type="curve" smooth="yes"/>
      <point x="40" y="-30"/>
      <point x="121" y="-80"/>
      <point x="225" y="-80" type="curve" smooth="yes"/>
      <point x="365" y="-80"/>
      <point x="443" y="17"/>
    </contour>
    <contour>
      <point x="76" y="365" type="line"/>
      <point x="94" y="421" type="line" smooth="yes"/>
      <point x="107" y="460"/>
      <point x="131" y="461"/>
      <point x="172" y="461" type="curve"/>
      <point x="55" y="530" type="line"/>
      <point x="53" y="365" type="line"/>
    </contour>
    <contour>
      <point x="427" y="510" type="line"/>
      <point x="330" y="460" type="line"/>
      <point x="149" y="251" type="line"/>
      <point x="171" y="233" type="line"/>
    </contour>
    <contour>
      <point x="330" y="460" type="line"/>
      <point x="427" y="510" type="line"/>
      <point x="427" y="530" type="line"/>
      <point x="55" y="530" type="line"/>
      <point x="55" y="461" type="line"/>
    </contour>
  </outline>
</glyph>
<glyph name="four" format="1">
  <advance width="496"/>
  <unicode hex="0034"/>
  <outline>
    <contour>
      <point x="368" y="493" type="curve" smooth="yes"/>
      <point x="368" y="524"/>
      <point x="352" y="540"/>
      <point x="323" y="540" type="curve" smooth="yes"/>
      <point x="230" y="540"/>
      <point x="301" y="357"/>
      <point x="10" y="118" type="curve"/>
      <point x="41" y="107" type="line"/>
      <point x="239" y="269"/>
      <point x="368" y="408"/>
    </contour>
    <contour>
      <point x="456" y="-70" type="line"/>
      <point x="456" y="-47"/>
      <point x="451" y="-43"/>
      <point x="432" y="-43" type="curve" smooth="yes"/>
      <point x="181" y="-43" type="line"/>
      <point x="181" y="-70" type="line"/>
    </contour>
    <contour>
      <point x="456" y="116" type="line"/>
      <point x="10" y="118" type="line"/>
      <point x="16" y="88" type="line"/>
      <point x="456" y="86" type="line"/>
    </contour>
    <contour>
      <point x="364" y="-70" type="line"/>
      <point x="364" y="312" type="line"/>
      <point x="344" y="312" type="line"/>
      <point x="334" y="274" type="line" smooth="yes"/>
      <point x="326" y="242"/>
      <point x="320" y="234"/>
      <point x="294" y="233" type="curve" smooth="yes"/>
      <point x="288" y="233" type="line"/>
      <point x="288" y="-70" type="line"/>
    </contour>
  </outline>
</glyph>
<glyph name="A" format="1">
  <advance width="613"/>
  <unicode hex="0041"/>
  <outline>
    <contour>
      <point x="602" y="9" type="move" name="ogonek"/>
    </contour>
    <contour>
      <point x="305" y="630" type="move" name="top"/>
    </contour>
    <contour>
      <point x="613" y="0" type="line"/>
      <point x="613" y="20"/>
      <point x="607" y="26"/>
      <point x="587" y="26" type="curve" smooth="yes"/>
      <point x="397" y="26" type="line"/>
      <point x="397" y="0" type="line"/>
    </contour>
    <contour>
      <point x="440" y="220" type="line"/>
      <point x="425" y="249" type="line"/>
      <point x="168" y="249" type="line"/>
      <point x="158" y="220" type="line"/>
    </contour>
    <contour>
      <point x="563" y="0" type="line"/>
      <point x="324" y="600" type="line"/>
      <point x="287" y="600" type="line"/>
      <point x="63" y="26" type="line"/>
      <point x="0" y="26" type="line"/>
      <point x="0" y="0" type="line"/>
      <point x="178" y="0" type="line"/>
      <point x="178" y="20"/>
      <point x="172" y="26"/>
      <point x="152" y="26" type="curve" smooth="yes"/>
      <point x="103" y="26" type="line"/>
      <point x="288" y="507" type="line"/>
      <point x="276" y="507" type="line"/>
      <point x="472" y="0" type="line"/>
    </contour>
  </outline>
</glyph>
<glyph name="K" format="1">
  <advance width="634"/>
  <unicode hex="004B"/>
  <outline>
    <contour>
      <point x="324" y="630" type="move" name="top"/>
    </contour>
    <contour>
      <point x="363" y="0" type="move" name="bottom"/>
    </contour>
    <contour>
      <point x="285" y="0" type="line"/>
      <point x="285" y="20"/>
      <point x="279" y="26"/>
      <point x="259" y="26" type="curve" smooth="yes"/>
      <point x="40" y="26" type="line"/>
      <point x="40" y="0" type="line"/>
    </contour>
    <contour>
      <point x="285" y="574" type="line"/>
      <point x="285" y="600" type="line"/>
      <point x="40" y="600" type="line"/>
      <point x="40" y="574" type="line"/>
    </contour>
    <contour>
      <point x="634" y="0" type="line"/>
      <point x="634" y="20"/>
      <point x="628" y="26"/>
      <point x="608" y="26" type="curve" smooth="yes"/>
      <point x="581" y="26" type="line"/>
      <point x="317" y="369" type="line"/>
      <point x="255" y="312" type="line"/>
      <point x="495" y="0" type="line"/>
    </contour>
    <contour>
      <point x="498" y="532" type="line" smooth="yes"/>
      <point x="529" y="561"/>
      <point x="543" y="574"/>
      <point x="573" y="574" type="curve" smooth="yes"/>
      <point x="592" y="574"/>
      <point x="599" y="579"/>
      <point x="599" y="600" type="curve"/>
      <point x="419" y="600" type="line"/>
      <point x="419" y="574" type="line"/>
      <point x="499" y="574" type="line"/>
      <point x="193" y="292" type="line"/>
      <point x="200" y="253" type="line"/>
    </contour>
    <component base="vertical_stem_upper" xOffset="80"/>
  </outline>
</glyph>
<glyph name="R" format="1">
  <advance width="612"/>
  <unicode hex="0052"/>
  <outline>
    <contour>
      <point x="305" y="630" type="move" name="top"/>
    </contour>
    <contour>
      <point x="332" y="0" type="move" name="bottom"/>
    </contour>
    <contour>
      <point x="285" y="0" type="line"/>
      <point x="285" y="26" type="line"/>
      <point x="40" y="26" type="line"/>
      <point x="40" y="0" type="line"/>
    </contour>
    <contour>
      <point x="297" y="281" type="line"/>
      <point x="461" y="0" type="line"/>
      <point x="612" y="0" type="line"/>
      <point x="612" y="23"/>
      <point x="607" y="26"/>
      <point x="588" y="26" type="curve" smooth="yes"/>
      <point x="550" y="26" type="line"/>
      <point x="382" y="294" type="line"/>
    </contour>
    <contour>
      <point x="40" y="600" type="line"/>
      <point x="40" y="574" type="line"/>
      <point x="306" y="574" type="line" smooth="yes"/>
      <point x="396" y="574"/>
      <point x="438" y="509"/>
      <point x="438" y="443" type="curve" smooth="yes"/>
      <point x="438" y="374"/>
      <point x="393" y="304"/>
      <point x="309" y="304" type="curve" smooth="yes"/>
      <point x="162" y="304" type="line"/>
      <point x="162" y="275" type="line"/>
      <point x="314" y="275" type="line" smooth="yes"/>
      <point x="459" y="275"/>
      <point x="532" y="361"/>
      <point x="532" y="444" type="curve" smooth="yes"/>
      <point x="532" y="523"/>
      <point x="466" y="600"/>
      <point x="336" y="600" type="curve" smooth="yes"/>
    </contour>
    <component base="vertical_stem_upper" xOffset="80"/>
  </outline>
</glyph>
<glyph name="S" format="1">
  <advance width="536"/>
  <unicode hex="0053"/>
  <outline>
    <contour>
      <point x="286" y="630" type="move" name="top"/>
    </contour>
    <contour>
      <point x="268" y="0" type="move" name="bottom"/>
    </contour>
    <contour>
      <point x="486" y="157" type="curve" smooth="yes"/>
      <point x="486" y="359"/>
      <point x="148" y="320"/>
      <point x="148" y="478" type="curve" smooth="yes"/>
      <point x="148" y="543"/>
      <point x="203" y="582"/>
      <point x="276" y="582" type="curve" smooth="yes"/>
      <point x="354" y="582"/>
      <point x="434" y="536"/>
      <point x="432" y="430" type="curve"/>
      <point x="462" y="430" type="line"/>
      <point x="462" y="605" type="line"/>
      <point x="437" y="605"/>
      <point x="432" y="598"/>
      <point x="432" y="571" type="curve"/>
      <point x="385" y="597"/>
      <point x="327" y="610"/>
      <point x="272" y="610" type="curve" smooth="yes"/>
      <point x="162" y="610"/>
      <point x="64" y="552"/>
      <point x="64" y="452" type="curve" smooth="yes"/>
      <point x="64" y="259"/>
      <point x="399" y="295"/>
      <point x="399" y="133" type="curve" smooth="yes"/>
      <point x="399" y="59"/>
      <point x="334" y="18"/>
      <point x="260" y="18" type="curve" smooth="yes"/>
      <point x="156" y="18"/>
      <point x="101" y="82"/>
      <point x="90" y="205" type="curve"/>
      <point x="60" y="205" type="line"/>
      <point x="60" y="-2" type="line"/>
      <point x="88" y="-2"/>
      <point x="90" y="5"/>
      <point x="90" y="41" type="curve"/>
      <point x="141" y="7"/>
      <point x="203" y="-10"/>
      <point x="265" y="-10" type="curve" smooth="yes"/>
      <point x="381" y="-10"/>
      <point x="486" y="48"/>
    </contour>
  </outline>
</glyph>
<glyph name="Y" format="1">
  <advance width="554"/>
  <unicode hex="0059"/>
  <outline>
    <contour>
      <point x="290" y="630" type="move" name="top"/>
    </contour>
    <contour>
      <point x="403" y="0" type="line"/>
      <point x="403" y="20"/>
      <point x="397" y="26"/>
      <point x="377" y="26" type="curve" smooth="yes"/>
      <point x="158" y="26" type="line"/>
      <point x="158" y="0" type="line"/>
    </contour>
    <contour>
      <point x="220" y="574" type="line"/>
      <point x="220" y="600" type="line"/>
      <point x="-5" y="600" type="line"/>
      <point x="-5" y="574" type="line"/>
    </contour>
    <contour>
      <point x="376" y="574" type="line"/>
      <point x="456" y="574" type="line"/>
      <point x="294" y="264" type="line"/>
      <point x="314" y="264" type="line"/>
      <point x="130" y="600" type="line"/>
      <point x="35" y="600" type="line"/>
      <point x="238" y="239" type="line"/>
      <point x="238" y="0" type="line"/>
      <point x="323" y="0" type="line"/>
      <point x="323" y="249" type="line"/>
      <point x="474" y="546" type="line" smooth="yes"/>
      <point x="487" y="571"/>
      <point x="503" y="574"/>
      <point x="528" y="574" type="curve" smooth="yes"/>
      <point x="548" y="574"/>
      <point x="554" y="580"/>
      <point x="554" y="600" type="curve"/>
      <point x="376" y="600" type="line"/>
    </contour>
  </outline>
</glyph>
<glyph name="bracketleft" format="1">
  <advance width="350"/>
  <unicode hex="005B"/>
  <outline>
    <contour>
      <point x="330" y="-136" type="line"/>
      <point x="90" y="-136" type="line"/>
      <point x="90" y="645" type="line"/>
      <point x="330" y="645" type="line"/>
      <point x="330" y="617" type="line"/>
      <point x="169" y="617" type="line"/>
      <point x="169" y="-106" type="line"/>
      <point x="330" y="-108" type="line"/>
    </contour>
  </outline>
</glyph>
<glyph name="grave" format="1">
  <advance width="500"/>
  <unicode hex="0060"/>
  <outline>
    <contour>
      <point x="253" y="500" type="move" name="_top"/>
    </contour>
    <contour>
      <point x="338" y="500" type="line"/>
      <point x="289" y="553"/>
      <point x="260" y="619"/>
      <point x="236" y="643" type="curve" smooth="yes"/>
      <point x="227" y="652"/>
      <point x="217" y="656"/>
      <point x="207" y="656" type="curve" smooth="yes"/>
      <point x="184" y="656"/>
      <point x="161" y="634"/>
      <point x="161" y="611" type="curve" smooth="yes"/>
      <point x="161" y="601"/>
      <point x="166" y="591"/>
      <point x="174" y="583" type="curve" smooth="yes"/>
      <point x="199" y="558"/>
      <point x="265" y="529"/>
      <point x="322" y="483" type="curve"/>
    </contour>
  </outline>
</glyph>
<glyph name="g" format="1">
  <advance width="481"/>
  <unicode hex="0067"/>
  <outline>
    <contour>
      <point x="243" y="500" type="move" name="top"/>
    </contour>
    <contour>
      <point x="130" y="277" type="curve" smooth="yes"/>
      <point x="130" y="352"/>
      <point x="154" y="410"/>
      <point x="230" y="410" type="curve" smooth="yes"/>
      <point x="306" y="410"/>
      <point x="329" y="352"/>
      <point x="329" y="277" type="curve" smooth="yes"/>
      <point x="329" y="202"/>
      <point x="306" y="140"/>
      <point x="230" y="140" type="curve" smooth="yes"/>
      <point x="154" y="140"/>
      <point x="130" y="202"/>
    </contour>
    <contour>
      <point x="231" y="435" type="curve" smooth="yes"/>
      <point x="137" y="435"/>
      <point x="50" y="376"/>
      <point x="50" y="276" type="curve" smooth="yes"/>
      <point x="50" y="181"/>
      <point x="150" y="115"/>
      <point x="229" y="115" type="curve" smooth="yes"/>
      <point x="323" y="115"/>
      <point x="409" y="177"/>
      <point x="409" y="277" type="curve" smooth="yes"/>
      <point x="409" y="377"/>
      <point x="325" y="435"/>
    </contour>
    <contour>
      <point x="349" y="379" type="curve" smooth="yes"/>
      <point x="349" y="410"/>
      <point x="369" y="436"/>
      <point x="393" y="436" type="curve" smooth="yes"/>
      <point x="420" y="436"/>
      <point x="421" y="411"/>
      <point x="443" y="411" type="curve" smooth="yes"/>
      <point x="462" y="411"/>
      <point x="472" y="426"/>
      <point x="472" y="443" type="curve" smooth="yes"/>
      <point x="472" y="465"/>
      <point x="456" y="489"/>
      <point x="421" y="489" type="curve" smooth="yes"/>
      <point x="377" y="489"/>
      <point x="322" y="450"/>
      <point x="322" y="370" type="curve" smooth="yes"/>
      <point x="322" y="365"/>
      <point x="322" y="360"/>
      <point x="323" y="355" type="curve"/>
      <point x="359" y="338" type="line"/>
      <point x="353" y="350"/>
      <point x="349" y="362"/>
    </contour>
    <contour>
      <point x="143" y="141" type="line" smooth="yes"/>
      <point x="79" y="141"/>
      <point x="55" y="101"/>
      <point x="55" y="60" type="curve" smooth="yes"/>
      <point x="55" y="16"/>
      <point x="85" y="-33"/>
      <point x="156" y="-34" type="curve" smooth="yes"/>
      <point x="310" y="-36" type="line" smooth="yes"/>
      <point x="370" y="-37"/>
      <point x="400" y="-49"/>
      <point x="400" y="-90" type="curve" smooth="yes"/>
      <point x="400" y="-138"/>
      <point x="318" y="-164"/>
      <point x="231" y="-164" type="curve" smooth="yes"/>
      <point x="142" y="-164"/>
      <point x="99" y="-127"/>
      <point x="99" y="-84" type="curve" smooth="yes"/>
      <point x="99" y="-64"/>
      <point x="111" y="-41"/>
      <point x="131" y="-21" type="curve"/>
      <point x="108" y="-10" type="line"/>
      <point x="79" y="-35"/>
      <point x="65" y="-64"/>
      <point x="65" y="-90" type="curve" smooth="yes"/>
      <point x="65" y="-143"/>
      <point x="120" y="-190"/>
      <point x="231" y="-190" type="curve" smooth="yes"/>
      <point x="384" y="-190"/>
      <point x="448" y="-127"/>
      <point x="448" y="-63" type="curve" smooth="yes"/>
      <point x="448" y="-4"/>
      <point x="410" y="36"/>
      <point x="322" y="38" type="curve" smooth="yes"/>
      <point x="140" y="42" type="line" smooth="yes"/>
      <point x="109" y="43"/>
      <point x="93" y="56"/>
      <point x="93" y="82" type="curve" smooth="yes"/>
      <point x="93" y="99"/>
      <point x="107" y="116"/>
      <point x="141" y="116" type="curve" smooth="yes"/>
      <point x="229" y="115" type="line"/>
      <point x="187" y="141" type="line"/>
    </contour>
  </outline>
</glyph>
<glyph name="t" format="1">
  <advance width="325"/>
  <unicode hex="0074"/>
  <outline>
    <contour>
      <point x="160" y="250" type="move" name="center"/>
    </contour>
    <contour>
      <point x="181" y="0" type="move" name="bottom"/>
    </contour>
    <contour>
      <point x="305" y="500" type="move" name="topright"/>
    </contour>
    <contour>
      <point x="20" y="400" type="line"/>
      <point x="320" y="400" type="line"/>
      <point x="320" y="425" type="line"/>
      <point x="20" y="425" type="line"/>
    </contour>
    <contour>
      <point x="205" y="-11" type="curve" smooth="yes"/>
      <point x="258" y="-11"/>
      <point x="304" y="19"/>
      <point x="320" y="104" type="curve"/>
      <point x="293" y="109" type="line"/>
      <point x="279" y="44"/>
      <point x="249" y="19"/>
      <point x="220" y="19" type="curve" smooth="yes"/>
      <point x="185" y="19"/>
      <point x="165" y="44"/>
      <point x="165" y="96" type="curve" smooth="yes"/>
      <point x="165" y="541" type="line"/>
      <point x="90" y="520" type="line"/>
      <point x="90" y="118" type="line" smooth="yes"/>
      <point x="90" y="16"/>
      <point x="147" y="-11"/>
    </contour>
  </outline>
</glyph>
<glyph name="u" format="1">
  <advance width="567"/>
  <unicode hex="0075"/>
  <outline>
    <contour>
      <point x="540" y="9" type="move" name="ogonek"/>
    </contour>
    <contour>
      <point x="284" y="500" type="move" name="top"/>
    </contour>
    <contour>
      <point x="515" y="25" type="curve" smooth="yes"/>
      <point x="465" y="25" type="line"/>
      <point x="465" y="425" type="line"/>
      <point x="308" y="425" type="line"/>
      <point x="308" y="400" type="line"/>
      <point x="390" y="400" type="line"/>
      <point x="390" y="184" type="line" smooth="yes"/>
      <point x="390" y="84"/>
      <point x="323" y="33"/>
      <point x="269" y="33" type="curve" smooth="yes"/>
      <point x="215" y="33"/>
      <point x="172" y="64"/>
      <point x="172" y="147" type="curve" smooth="yes"/>
      <point x="172" y="425" type="line"/>
      <point x="20" y="425" type="line"/>
      <point x="20" y="400" type="line"/>
      <point x="97" y="400" type="line"/>
      <point x="97" y="162" type="line" smooth="yes"/>
      <point x="97" y="22"/>
      <point x="167" y="-10"/>
      <point x="240" y="-10" type="curve" smooth="yes"/>
      <point x="298" y="-10"/>
      <point x="363" y="25"/>
      <point x="392" y="102" type="curve"/>
      <point x="399" y="0" type="line"/>
      <point x="540" y="0" type="line"/>
      <point x="540" y="20"/>
      <point x="535" y="25"/>
    </contour>
  </outline>
</glyph>
<glyph name="w" format="1">
  <advance width="684"/>
  <unicode hex="0077"/>
  <outline>
    <contour>
      <point x="204" y="400" type="line"/>
      <point x="204" y="425" type="line"/>
      <point x="6" y="425" type="line"/>
      <point x="6" y="400" type="line"/>
      <point x="51" y="400" type="line"/>
      <point x="176" y="65" type="line" smooth="yes"/>
      <point x="199" y="4"/>
      <point x="212" y="-5"/>
      <point x="246" y="-5" type="curve" smooth="yes"/>
      <point x="266" y="-5" type="line"/>
      <point x="375" y="324" type="line"/>
      <point x="356" y="350" type="line"/>
      <point x="254" y="44" type="line"/>
      <point x="259" y="44" type="line"/>
      <point x="129" y="400" type="line"/>
    </contour>
    <contour>
      <point x="447" y="400" type="line"/>
      <point x="447" y="425" type="line"/>
      <point x="294" y="425" type="line"/>
      <point x="420" y="65" type="line" smooth="yes"/>
      <point x="441" y="4"/>
      <point x="452" y="-5"/>
      <point x="486" y="-5" type="curve" smooth="yes"/>
      <point x="502" y="-5" type="line"/>
      <point x="623" y="364" type="line" smooth="yes"/>
      <point x="633" y="394"/>
      <point x="640" y="400"/>
      <point x="658" y="400" type="curve" smooth="yes"/>
      <point x="674" y="400"/>
      <point x="684" y="402"/>
      <point x="684" y="425" type="curve"/>
      <point x="536" y="425" type="line"/>
      <point x="536" y="400" type="line"/>
      <point x="606" y="400" type="line"/>
      <point x="492" y="46" type="line"/>
      <point x="498" y="46" type="line"/>
      <point x="377" y="400" type="line"/>
    </contour>
  </outline>
</glyph>
<glyph name="braceleft" format="1">
  <advance width="400"/>
  <unicode hex="007B"/>
  <outline>
    <contour>
      <point x="231" y="148" type="curve" smooth="yes"/>
      <point x="231" y="-3" type="line" smooth="yes"/>
      <point x="231" y="-93"/>
      <point x="260" y="-108"/>
      <point x="380" y="-108" type="curve"/>
      <point x="380" y="-136" type="line"/>
      <point x="220" y="-136"/>
      <point x="156" y="-131"/>
      <point x="156" y="4" type="curve" smooth="yes"/>
      <point x="156" y="153" type="line" smooth="yes"/>
      <point x="156" y="211"/>
      <point x="142" y="231"/>
      <point x="80" y="244" type="curve"/>
      <point x="80" y="265" type="line"/>
      <point x="142" y="278"/>
      <point x="156" y="298"/>
      <point x="156" y="356" type="curve" smooth="yes"/>
      <point x="156" y="505" type="line" smooth="yes"/>
      <point x="156" y="640"/>
      <point x="220" y="645"/>
      <point x="380" y="645" type="curve"/>
      <point x="380" y="617" type="line"/>
      <point x="260" y="617"/>
      <point x="231" y="602"/>
      <point x="231" y="512" type="curve" smooth="yes"/>
      <point x="231" y="361" type="line" smooth="yes"/>
      <point x="231" y="292"/>
      <point x="195" y="274"/>
      <point x="155" y="257" type="curve"/>
      <point x="155" y="252" type="line"/>
      <point x="195" y="235"/>
      <point x="231" y="217"/>
    </contour>
  </outline>
</glyph>
<glyph name="dieresis" format="1">
  <advance width="500"/>
  <unicode hex="00A8"/>
  <outline>
    <contour>
      <point x="250" y="500" type="move" name="_top"/>
    </contour>
    <contour>
      <point x="209" y="571" type="curve" smooth="yes"/>
      <point x="209" y="599"/>
      <point x="187" y="621"/>
      <point x="160" y="621" type="curve" smooth="yes"/>
      <point x="131" y="621"/>
      <point x="109" y="599"/>
      <point x="109" y="571" type="curve" smooth="yes"/>
      <point x="109" y="542"/>
      <point x="131" y="521"/>
      <point x="160" y="521" type="curve" smooth="yes"/>
      <point x="187" y="521"/>
      <point x="209" y="542"/>
    </contour>
    <contour>
      <point x="392" y="571" type="curve" smooth="yes"/>
      <point x="392" y="599"/>
      <point x="370" y="621"/>
      <point x="342" y="621" type="curve" smooth="yes"/>
      <point x="314" y="621"/>
      <point x="292" y="599"/>
      <point x="292" y="571" type="curve" smooth="yes"/>
      <point x="292" y="542"/>
      <point x="314" y="521"/>
      <point x="342" y="521" type="curve" smooth="yes"/>
      <point x="370" y="521"/>
      <point x="392" y="542"/>
    </contour>
  </outline>
</glyph>
<glyph name="ordfeminine" format="1">
  <advance width="311"/>
  <unicode hex="00AA"/>
  <outline>
    <contour>
      <point x="279" y="244" type="line"/>
      <point x="279" y="279" type="line"/>
      <point x="27" y="279" type="line"/>
      <point x="27" y="244" type="line"/>
    </contour>
    <contour>
      <point x="291" y="395" type="curve"/>
      <point x="272" y="395" type="line"/>
      <point x="269" y="365"/>
      <point x="261" y="357"/>
      <point x="252" y="357" type="curve" smooth="yes"/>
      <point x="242" y="357"/>
      <point x="237" y="364"/>
      <point x="237" y="384" type="curve" smooth="yes"/>
      <point x="237" y="506" type="line" smooth="yes"/>
      <point x="237" y="578"/>
      <point x="187" y="600"/>
      <point x="128" y="600" type="curve" smooth="yes"/>
      <point x="73" y="600"/>
      <point x="30" y="577"/>
      <point x="30" y="542" type="curve" smooth="yes"/>
      <point x="30" y="522"/>
      <point x="44" y="513"/>
      <point x="61" y="513" type="curve" smooth="yes"/>
      <point x="115" y="513"/>
      <point x="76" y="580"/>
      <point x="131" y="580" type="curve" smooth="yes"/>
      <point x="165" y="580"/>
      <point x="177" y="554"/>
      <point x="177" y="510" type="curve" smooth="yes"/>
      <point x="177" y="428" type="line"/>
      <point x="167" y="393"/>
      <point x="143" y="362"/>
      <point x="113" y="362" type="curve" smooth="yes"/>
      <point x="92" y="362"/>
      <point x="79" y="380"/>
      <point x="79" y="409" type="curve" smooth="yes"/>
      <point x="79" y="439"/>
      <point x="98" y="463"/>
      <point x="182" y="463" type="curve"/>
      <point x="182" y="483" type="line"/>
      <point x="65" y="483"/>
      <point x="15" y="463"/>
      <point x="15" y="402" type="curve" smooth="yes"/>
      <point x="15" y="354"/>
      <point x="52" y="330"/>
      <point x="92" y="330" type="curve" smooth="yes"/>
      <point x="136" y="330"/>
      <point x="167" y="358"/>
      <point x="179" y="394" type="curve"/>
      <point x="175" y="394" type="line"/>
      <point x="178" y="355"/>
      <point x="201" y="331"/>
      <point x="237" y="331" type="curve" smooth="yes"/>
      <point x="268" y="331"/>
      <point x="289" y="351"/>
    </contour>
  </outline>
</glyph>
<glyph name="logicalnot" format="1">
  <advance width="492"/>
  <unicode hex="00AC"/>
  <outline>
    <contour>
      <point x="424" y="296" type="line"/>
      <point x="424" y="332" type="line"/>
      <point x="45" y="332" type="line"/>
      <point x="45" y="296" type="line"/>
    </contour>
    <contour>
      <point x="402" y="118" type="line"/>
      <point x="447" y="118" type="line"/>
      <point x="447" y="332" type="line"/>
      <point x="402" y="332" type="line"/>
    </contour>
  </outline>
</glyph>
<glyph name="registered" format="1">
  <advance width="395"/>
  <unicode hex="00AE"/>
  <outline>
    <contour>
      <point x="370" y="473" type="curve" smooth="yes"/>
      <point x="370" y="569"/>
      <point x="296" y="642"/>
      <point x="198" y="642" type="curve" smooth="yes"/>
      <point x="98" y="642"/>
      <point x="25" y="570"/>
      <point x="25" y="473" type="curve" smooth="yes"/>
      <point x="25" y="376"/>
      <point x="99" y="304"/>
      <point x="198" y="304" type="curve" smooth="yes"/>
      <point x="297" y="304"/>
      <point x="370" y="376"/>
    </contour>
    <contour>
      <point x="49" y="473" type="curve" smooth="yes"/>
      <point x="49" y="558"/>
      <point x="113" y="622"/>
      <point x="198" y="622" type="curve" smooth="yes"/>
      <point x="281" y="621"/>
      <point x="346" y="558"/>
      <point x="346" y="473" type="curve" smooth="yes"/>
      <point x="346" y="387"/>
      <point x="282" y="324"/>
      <point x="198" y="324" type="curve" smooth="yes"/>
      <point x="114" y="324"/>
      <point x="49" y="387"/>
    </contour>
    <contour>
      <point x="305" y="376" type="line"/>
      <point x="305" y="386"/>
      <point x="303" y="390"/>
      <point x="293" y="390" type="curve" smooth="yes"/>
      <point x="284" y="390" type="line"/>
      <point x="236" y="466" type="line"/>
      <point x="268" y="475"/>
      <point x="282" y="495"/>
      <point x="282" y="521" type="curve" smooth="yes"/>
      <point x="282" y="548"/>
      <point x="258" y="573"/>
      <point x="208" y="573" type="curve" smooth="yes"/>
      <point x="106" y="574" type="line"/>
      <point x="106" y="559" type="line"/>
      <point x="129" y="559" type="line"/>
      <point x="129" y="390" type="line"/>
      <point x="106" y="390" type="line"/>
      <point x="106" y="375" type="line"/>
      <point x="199" y="375" type="line"/>
      <point x="199" y="390" type="line"/>
      <point x="174" y="390" type="line"/>
      <point x="174" y="463" type="line"/>
      <point x="195" y="463" type="line"/>
      <point x="243" y="374" type="line"/>
    </contour>
    <contour>
      <point x="174" y="559" type="line"/>
      <point x="199" y="559" type="line" smooth="yes"/>
      <point x="221" y="559"/>
      <point x="232" y="539"/>
      <point x="232" y="521" type="curve" smooth="yes"/>
      <point x="232" y="496"/>
      <point x="218" y="480"/>
      <point x="199" y="480" type="curve" smooth="yes"/>
      <point x="174" y="480" type="line"/>
    </contour>
  </outline>
</glyph>
<glyph name="uni00B5" format="1">
  <advance width="567"/>
  <unicode hex="00B5"/>
  <outline>
    <contour>
      <point x="171" y="-110" type="curve" smooth="yes"/>
      <point x="171" y="-86"/>
      <point x="154" y="51"/>
      <point x="145" y="117" type="curve"/>
      <point x="130" y="117" type="line"/>
      <point x="141" y="32"/>
      <point x="192" y="-10"/>
      <point x="248" y="-10" type="curve" smooth="yes"/>
      <point x="302" y="-10"/>
      <point x="359" y="28"/>
      <point x="392" y="102" type="curve"/>
      <point x="399" y="0" type="line"/>
      <point x="542" y="0" type="line"/>
      <point x="542" y="23"/>
      <point x="537" y="26"/>
      <point x="518" y="26" type="curve" smooth="yes"/>
      <point x="465" y="26" type="line"/>
      <point x="465" y="425" type="line"/>
      <point x="308" y="425" type="line"/>
      <point x="308" y="399" type="line"/>
      <point x="390" y="399" type="line"/>
      <point x="390" y="184" type="line"/>
      <point x="387" y="84"/>
      <point x="323" y="33"/>
      <point x="269" y="33" type="curve" smooth="yes"/>
      <point x="215" y="33"/>
      <point x="172" y="64"/>
      <point x="172" y="147" type="curve" smooth="yes"/>
      <point x="172" y="425" type="line"/>
      <point x="20" y="425" type="line"/>
      <point x="20" y="399" type="line"/>
      <point x="97" y="399" type="line"/>
      <point x="97" y="160" type="line" smooth="yes"/>
      <point x="97" y="70"/>
      <point x="86" y="-79"/>
      <point x="86" y="-112" type="curve" smooth="yes"/>
      <point x="86" y="-148"/>
      <point x="95" y="-171"/>
      <point x="128" y="-171" type="curve" smooth="yes"/>
      <point x="159" y="-171"/>
      <point x="171" y="-149"/>
    </contour>
  </outline>
</glyph>
<glyph name="cedilla" format="1">
  <advance width="500"/>
  <unicode hex="00B8"/>
  <outline>
    <contour>
      <point x="231" y="0" type="move" name="_bottom"/>
    </contour>
    <contour>
      <point x="165" y="-85" type="line"/>
      <point x="179" y="-94" type="line"/>
      <point x="194" y="-83"/>
      <point x="213" y="-77"/>
      <point x="230" y="-77" type="curve" smooth="yes"/>
      <point x="260" y="-77"/>
      <point x="285" y="-94"/>
      <point x="285" y="-134" type="curve" smooth="yes"/>
      <point x="285" y="-178"/>
      <point x="258" y="-202"/>
      <point x="226" y="-202" type="curve" smooth="yes"/>
      <point x="203" y="-202"/>
      <point x="176" y="-189"/>
      <point x="156" y="-162" type="curve"/>
      <point x="140" y="-174" type="line"/>
      <point x="163" y="-211"/>
      <point x="204" y="-227"/>
      <point x="244" y="-227" type="curve" smooth="yes"/>
      <point x="303" y="-227"/>
      <point x="360" y="-193"/>
      <point x="360" y="-136" type="curve" smooth="yes"/>
      <point x="360" y="-81"/>
      <point x="309" y="-52"/>
      <point x="257" y="-52" type="curve" smooth="yes"/>
      <point x="239" y="-52"/>
      <point x="221" y="-55"/>
      <point x="205" y="-62" type="curve"/>
      <point x="234" y="3" type="line"/>
      <point x="209" y="3" type="line"/>
    </contour>
  </outline>
</glyph>
<glyph name="si_A" format="1">
  <advance width="559"/>
  <unicode hex="0D85"/>
  <outline>
    <contour>
      <point x="375" y="202" type="curve"/>
      <point x="375" y="229" type="line"/>
      <point x="384" y="224"/>
      <point x="394" y="224"/>
      <point x="401" y="224" type="curve" smooth="yes"/>
      <point x="429" y="224"/>
      <point x="453" y="243"/>
      <point x="453" y="280" type="curve" smooth="yes"/>
      <point x="453" y="303"/>
      <point x="450" y="318"/>
      <point x="438" y="337" type="curve" smooth="yes"/>
      <point x="427" y="354"/>
      <point x="411" y="363"/>
      <point x="411" y="389" type="curve" smooth="yes"/>
      <point x="411" y="391"/>
      <point x="412" y="393"/>
      <point x="412" y="395" type="curve"/>
      <point x="428" y="408" type="line" smooth="yes"/>
      <point x="446" y="412" type="line"/>
      <point x="439" y="408"/>
      <point x="435" y="405"/>
      <point x="435" y="394" type="curve" smooth="yes"/>
      <point x="435" y="361"/>
      <point x="514" y="345"/>
      <point x="514" y="274" type="curve" smooth="yes"/>
      <point x="514" y="223"/>
      <point x="468" y="195"/>
      <point x="418" y="195" type="curve" smooth="yes"/>
      <point x="405" y="195"/>
      <point x="391" y="197"/>
    </contour>
    <contour>
      <point x="351" y="-210" type="line"/>
      <point x="351" y="-38"/>
      <point x="351" y="134"/>
      <point x="351" y="306" type="curve" smooth="yes"/>
      <point x="351" y="342"/>
      <point x="359" y="371"/>
      <point x="377" y="392" type="curve" smooth="yes"/>
      <point x="392" y="409"/>
      <point x="409" y="420"/>
      <point x="429" y="425" type="curve"/>
      <point x="451" y="414" type="line"/>
      <point x="383" y="384"/>
      <point x="379" y="344"/>
      <point x="379" y="308" type="curve" smooth="yes"/>
      <point x="379" y="-210" type="line"/>
    </contour>
    <contour>
      <point x="32" y="156" type="curve" smooth="yes"/>
      <point x="32" y="242"/>
      <point x="92" y="302"/>
      <point x="197" y="302" type="curve" smooth="yes"/>
      <point x="309" y="302" type="line"/>
      <point x="308" y="345"/>
      <point x="280" y="384"/>
      <point x="235" y="384" type="curve" smooth="yes"/>
      <point x="200" y="384"/>
      <point x="192" y="368"/>
      <point x="184" y="350" type="curve" smooth="yes"/>
      <point x="179" y="339"/>
      <point x="168" y="323"/>
      <point x="144" y="323" type="curve" smooth="yes"/>
      <point x="123" y="323"/>
      <point x="104" y="337"/>
      <point x="104" y="360" type="curve" smooth="yes"/>
      <point x="104" y="400"/>
      <point x="150" y="423"/>
      <point x="206" y="423" type="curve" smooth="yes"/>
      <point x="288" y="423"/>
      <point x="339" y="373"/>
      <point x="339" y="283" type="curve" smooth="yes"/>
      <point x="339" y="282"/>
      <point x="339" y="281"/>
      <point x="339" y="280" type="curve"/>
      <point x="246" y="280" type="line" smooth="yes"/>
      <point x="127" y="280"/>
      <point x="110" y="195"/>
      <point x="110" y="160" type="curve" smooth="yes"/>
      <point x="110" y="86"/>
      <point x="157" y="22"/>
      <point x="290" y="22" type="curve" smooth="yes"/>
      <point x="400" y="22"/>
      <point x="469" y="49"/>
      <point x="511" y="81" type="curve"/>
      <point x="511" y="50" type="line"/>
      <point x="461" y="17"/>
      <point x="377" y="-4"/>
      <point x="275" y="-4" type="curve" smooth="yes"/>
      <point x="115" y="-4"/>
      <point x="32" y="60"/>
    </contour>
  </outline>
</glyph>
<glyph name="si_E" format="1">
  <advance width="581"/>
  <unicode hex="0D91"/>
  <outline>
    <contour>
      <point x="44" y="161" type="curve" smooth="yes"/>
      <point x="44" y="191"/>
      <point x="54" y="222"/>
      <point x="76" y="242" type="curve" smooth="yes"/>
      <point x="92" y="256"/>
      <point x="111" y="266"/>
      <point x="136" y="271" type="curve"/>
      <point x="169" y="283"/>
      <point x="209" y="295"/>
      <point x="245" y="295" type="curve" smooth="yes"/>
      <point x="257" y="295" type="line"/>
      <point x="257" y="297"/>
      <point x="257" y="299"/>
      <point x="257" y="301" type="curve" smooth="yes"/>
      <point x="257" y="348"/>
      <point x="223" y="386"/>
      <point x="187" y="386" type="curve" smooth="yes"/>
      <point x="149" y="386"/>
      <point x="139" y="366"/>
      <point x="135" y="348" type="curve" smooth="yes"/>
      <point x="130" y="328"/>
      <point x="120" y="315"/>
      <point x="99" y="315" type="curve" smooth="yes"/>
      <point x="83" y="315"/>
      <point x="62" y="326"/>
      <point x="62" y="352" type="curve" smooth="yes"/>
      <point x="62" y="394"/>
      <point x="104" y="422"/>
      <point x="161" y="422" type="curve" smooth="yes"/>
      <point x="247" y="422"/>
      <point x="288" y="354"/>
      <point x="288" y="283" type="curve" smooth="yes"/>
      <point x="288" y="280"/>
      <point x="288" y="274"/>
      <point x="288" y="271" type="curve"/>
      <point x="226" y="271" type="line" smooth="yes"/>
      <point x="183" y="271"/>
      <point x="143" y="259"/>
      <point x="119" y="243" type="curve" smooth="yes"/>
      <point x="93" y="226"/>
      <point x="80" y="201"/>
      <point x="80" y="176" type="curve" smooth="yes"/>
      <point x="80" y="92"/>
      <point x="184" y="69"/>
      <point x="272" y="69" type="curve" smooth="yes"/>
      <point x="421" y="69"/>
      <point x="501" y="145"/>
      <point x="501" y="261" type="curve" smooth="yes"/>
      <point x="501" y="317"/>
      <point x="484" y="367"/>
      <point x="460" y="402" type="curve"/>
      <point x="445" y="370"/>
      <point x="416" y="351"/>
      <point x="374" y="351" type="curve" smooth="yes"/>
      <point x="312" y="351"/>
      <point x="276" y="405"/>
      <point x="276" y="469" type="curve" smooth="yes"/>
      <point x="276" y="518"/>
      <point x="291" y="553"/>
      <point x="317" y="583" type="curve"/>
      <point x="377" y="551"/>
      <point x="446" y="481"/>
      <point x="481" y="420" type="curve" smooth="yes"/>
      <point x="519" y="355"/>
      <point x="532" y="307"/>
      <point x="532" y="239" type="curve" smooth="yes"/>
      <point x="532" y="114"/>
      <point x="449" y="0"/>
      <point x="270" y="0" type="curve" smooth="yes"/>
      <point x="152" y="0"/>
      <point x="44" y="45"/>
    </contour>
    <contour>
      <point x="16" y="264" type="curve"/>
      <point x="16" y="295" type="line"/>
      <point x="255" y="295" type="line"/>
      <point x="284" y="271" type="line"/>
      <point x="126" y="271" type="line" smooth="yes"/>
      <point x="57" y="270"/>
      <point x="32" y="267"/>
    </contour>
    <contour>
      <point x="306" y="473" type="curve" smooth="yes"/>
      <point x="306" y="425"/>
      <point x="325" y="386"/>
      <point x="381" y="386" type="curve" smooth="yes"/>
      <point x="404" y="386"/>
      <point x="431" y="397"/>
      <point x="441" y="430" type="curve"/>
      <point x="412" y="475"/>
      <point x="363" y="520"/>
      <point x="326" y="547" type="curve"/>
      <point x="314" y="529"/>
      <point x="306" y="507"/>
    </contour>
  </outline>
</glyph>
<glyph name="si_Ga" format="1">
  <advance width="621"/>
  <unicode hex="0D9C"/>
  <outline>
    <contour>
      <point x="56" y="1" type="move" name="_cursive"/>
    </contour>
    <contour>
      <point x="33" y="202" type="curve" smooth="yes"/>
      <point x="33" y="322"/>
      <point x="107" y="422"/>
      <point x="215" y="422" type="curve" smooth="yes"/>
      <point x="219" y="422"/>
      <point x="224" y="421"/>
      <point x="228" y="421" type="curve"/>
      <point x="228" y="398" type="line"/>
      <point x="225" y="398"/>
      <point x="220" y="398"/>
      <point x="217" y="398" type="curve" smooth="yes"/>
      <point x="133" y="398"/>
      <point x="67" y="325"/>
      <point x="67" y="225" type="curve" smooth="yes"/>
      <point x="67" y="144"/>
      <point x="114" y="69"/>
      <point x="201" y="69" type="curve" smooth="yes"/>
      <point x="259" y="69"/>
      <point x="311" y="96"/>
      <point x="311" y="154" type="curve" smooth="yes"/>
      <point x="311" y="191"/>
      <point x="291" y="212"/>
      <point x="261" y="212" type="curve" smooth="yes"/>
      <point x="254" y="212"/>
      <point x="244" y="210"/>
      <point x="237" y="205" type="curve"/>
      <point x="236" y="199"/>
      <point x="235" y="191"/>
      <point x="235" y="188" type="curve"/>
      <point x="211" y="188" type="line"/>
      <point x="221" y="310"/>
      <point x="281" y="422"/>
      <point x="400" y="422" type="curve" smooth="yes"/>
      <point x="509" y="422"/>
      <point x="572" y="324"/>
      <point x="572" y="212" type="curve" smooth="yes"/>
      <point x="572" y="93"/>
      <point x="488" y="-1"/>
      <point x="360" y="-1" type="curve" smooth="yes"/>
      <point x="350" y="-1"/>
      <point x="341" y="0"/>
      <point x="330" y="1" type="curve"/>
      <point x="330" y="25" type="line"/>
      <point x="338" y="24"/>
      <point x="346" y="23"/>
      <point x="354" y="23" type="curve" smooth="yes"/>
      <point x="458" y="23"/>
      <point x="530" y="97"/>
      <point x="530" y="195" type="curve" smooth="yes"/>
      <point x="530" y="294"/>
      <point x="473" y="362"/>
      <point x="384" y="362" type="curve" smooth="yes"/>
      <point x="309" y="362"/>
      <point x="257" y="305"/>
      <point x="241" y="230" type="curve"/>
      <point x="249" y="234"/>
      <point x="257" y="235"/>
      <point x="264" y="235" type="curve" smooth="yes"/>
      <point x="311" y="235"/>
      <point x="344" y="197"/>
      <point x="344" y="133" type="curve" smooth="yes"/>
      <point x="344" y="55"/>
      <point x="288" y="-2"/>
      <point x="203" y="-2" type="curve" smooth="yes"/>
      <point x="95" y="-2"/>
      <point x="33" y="94"/>
    </contour>
  </outline>
</glyph>
<glyph name="si_Fa" format="1">
  <advance width="592"/>
  <unicode hex="0DC6"/>
  <outline>
    <contour>
      <point x="43" y="0" type="move" name="_cursive"/>
    </contour>
    <contour>
      <point x="32" y="207" type="curve" smooth="yes"/>
      <point x="32" y="309"/>
      <point x="77" y="421"/>
      <point x="182" y="421" type="curve" smooth="yes"/>
      <point x="241" y="421"/>
      <point x="273" y="389"/>
      <point x="289" y="351" type="curve"/>
      <point x="305" y="389"/>
      <point x="337" y="421"/>
      <point x="396" y="421" type="curve" smooth="yes"/>
      <point x="501" y="421"/>
      <point x="546" y="309"/>
      <point x="546" y="207" type="curve" smooth="yes"/>
      <point x="546" y="107"/>
      <point x="499" y="-1"/>
      <point x="400" y="-1" type="curve" smooth="yes"/>
      <point x="388" y="-1"/>
      <point x="376" y="1"/>
      <point x="363" y="6" type="curve"/>
      <point x="363" y="31" type="line"/>
      <point x="374" y="27"/>
      <point x="385" y="25"/>
      <point x="396" y="25" type="curve" smooth="yes"/>
      <point x="465" y="25"/>
      <point x="512" y="96"/>
      <point x="512" y="191" type="curve" smooth="yes"/>
      <point x="512" y="275"/>
      <point x="482" y="352"/>
      <point x="398" y="352" type="curve" smooth="yes"/>
      <point x="347" y="352"/>
      <point x="305" y="326"/>
      <point x="305" y="257" type="curve" smooth="yes"/>
      <point x="305" y="217" type="line"/>
      <point x="273" y="217" type="line"/>
      <point x="273" y="257" type="line" smooth="yes"/>
      <point x="273" y="326"/>
      <point x="231" y="352"/>
      <point x="180" y="352" type="curve" smooth="yes"/>
      <point x="96" y="352"/>
      <point x="66" y="275"/>
      <point x="66" y="191" type="curve" smooth="yes"/>
      <point x="66" y="96"/>
      <point x="114" y="25"/>
      <point x="183" y="25" type="curve" smooth="yes"/>
      <point x="194" y="25"/>
      <point x="204" y="27"/>
      <point x="215" y="31" type="curve"/>
      <point x="215" y="6" type="line"/>
      <point x="202" y="1"/>
      <point x="190" y="-1"/>
      <point x="178" y="-1" type="curve" smooth="yes"/>
      <point x="79" y="-1"/>
      <point x="32" y="107"/>
    </contour>
  </outline>
</glyph>
<glyph name="si_MatraLl" format="1">
  <advance width="430"/>
  <unicode hex="0DF3"/>
  <outline>
    <contour>
      <point x="32" y="313" type="curve" smooth="yes"/>
      <point x="32" y="361"/>
      <point x="47" y="395"/>
      <point x="68" y="418" type="curve"/>
      <point x="103" y="418" type="line"/>
      <point x="82" y="400"/>
      <point x="61" y="366"/>
      <point x="61" y="314" type="curve" smooth="yes"/>
      <point x="61" y="269"/>
      <point x="86" y="232"/>
      <point x="131" y="232" type="curve" smooth="yes"/>
      <point x="164" y="232"/>
      <point x="182" y="255"/>
      <point x="182" y="283" type="curve" smooth="yes"/>
      <point x="182" y="300"/>
      <point x="175" y="315"/>
      <point x="162" y="329" type="curve"/>
      <point x="161" y="334"/>
      <point x="161" y="336"/>
      <point x="161" y="341" type="curve" smooth="yes"/>
      <point x="161" y="389"/>
      <point x="189" y="422"/>
      <point x="253" y="422" type="curve" smooth="yes"/>
      <point x="354" y="422"/>
      <point x="384" y="309"/>
      <point x="384" y="215" type="curve" smooth="yes"/>
      <point x="384" y="99"/>
      <point x="342" y="-2"/>
      <point x="239" y="-2" type="curve" smooth="yes"/>
      <point x="167" y="-2"/>
      <point x="131" y="53"/>
      <point x="131" y="117" type="curve" smooth="yes"/>
      <point x="131" y="129"/>
      <point x="132" y="140"/>
      <point x="135" y="153" type="curve"/>
      <point x="160" y="153" type="line"/>
      <point x="158" y="142"/>
      <point x="157" y="133"/>
      <point x="157" y="122" type="curve" smooth="yes"/>
      <point x="157" y="69"/>
      <point x="183" y="25"/>
      <point x="235" y="25" type="curve" smooth="yes"/>
      <point x="293" y="25"/>
      <point x="315" y="97"/>
      <point x="315" y="232" type="curve" smooth="yes"/>
      <point x="315" y="341"/>
      <point x="289" y="397"/>
      <point x="242" y="397" type="curve" smooth="yes"/>
      <point x="209" y="397"/>
      <point x="188" y="380"/>
      <point x="188" y="342" type="curve" smooth="yes"/>
      <point x="188" y="340"/>
      <point x="188" y="337"/>
      <point x="188" y="335" type="curve"/>
      <point x="211" y="322"/>
      <point x="224" y="304"/>
      <point x="224" y="281" type="curve" smooth="yes"/>
      <point x="224" y="232"/>
      <point x="181" y="207"/>
      <point x="132" y="207" type="curve" smooth="yes"/>
      <point x="70" y="207"/>
      <point x="32" y="254"/>
    </contour>
  </outline>
</glyph>
<glyph name="quotesinglbase" format="1">
  <advance width="164"/>
  <unicode hex="201A"/>
  <outline>
    <contour>
      <point x="134" y="39" type="curve" smooth="yes"/>
      <point x="134" y="76"/>
      <point x="115" y="102"/>
      <point x="80" y="102" type="curve" smooth="yes"/>
      <point x="53" y="102"/>
      <point x="33" y="81"/>
      <point x="33" y="55" type="curve" smooth="yes"/>
      <point x="33" y="30"/>
      <point x="53" y="15"/>
      <point x="73" y="10" type="curve" smooth="yes"/>
      <point x="84" y="7"/>
      <point x="95" y="2"/>
      <point x="95" y="-7" type="curve" smooth="yes"/>
      <point x="95" y="-21"/>
      <point x="81" y="-46"/>
      <point x="63" y="-67" type="curve"/>
      <point x="84" y="-81" type="line"/>
      <point x="117" y="-43"/>
      <point x="134" y="3"/>
    </contour>
  </outline>
</glyph>
<glyph name="dagger" format="1">
  <advance width="463"/>
  <unicode hex="2020"/>
  <outline>
    <contour>
      <point x="232" y="545" type="curve" smooth="yes"/>
      <point x="208" y="545"/>
      <point x="194" y="532"/>
      <point x="194" y="512" type="curve" smooth="yes"/>
      <point x="194" y="484"/>
      <point x="218" y="427"/>
      <point x="221" y="370" type="curve"/>
      <point x="242" y="370" type="line"/>
      <point x="245" y="425"/>
      <point x="269" y="484"/>
      <point x="269" y="513" type="curve" smooth="yes"/>
      <point x="269" y="531"/>
      <point x="257" y="545"/>
    </contour>
    <contour>
      <point x="232" y="336" type="curve" smooth="yes"/>
      <point x="207" y="336"/>
      <point x="192" y="320"/>
      <point x="192" y="295" type="curve" smooth="yes"/>
      <point x="192" y="249"/>
      <point x="211" y="208"/>
      <point x="219" y="-79" type="curve"/>
      <point x="244" y="-79" type="line"/>
      <point x="254" y="206"/>
      <point x="271" y="249"/>
      <point x="271" y="296" type="curve" smooth="yes"/>
      <point x="271" y="321"/>
      <point x="257" y="336"/>
    </contour>
    <contour>
      <point x="408" y="371" type="curve" smooth="yes"/>
      <point x="408" y="393"/>
      <point x="395" y="407"/>
      <point x="375" y="407" type="curve" smooth="yes"/>
      <point x="349" y="407"/>
      <point x="287" y="384"/>
      <point x="228" y="381" type="curve"/>
      <point x="228" y="362" type="line"/>
      <point x="285" y="359"/>
      <point x="349" y="336"/>
      <point x="376" y="336" type="curve" smooth="yes"/>
      <point x="394" y="336"/>
      <point x="408" y="348"/>
    </contour>
    <contour>
      <point x="55" y="372" type="curve" smooth="yes"/>
      <point x="55" y="350"/>
      <point x="68" y="336"/>
      <point x="88" y="336" type="curve" smooth="yes"/>
      <point x="114" y="336"/>
      <point x="174" y="359"/>
      <point x="233" y="362" type="curve"/>
      <point x="233" y="381" type="line"/>
      <point x="176" y="384"/>
      <point x="114" y="407"/>
      <point x="87" y="407" type="curve" smooth="yes"/>
      <point x="69" y="407"/>
      <point x="55" y="395"/>
    </contour>
  </outline>
</glyph>
<glyph name="partialdiff" format="1">
  <advance width="513"/>
  <unicode hex="2202"/>
  <outline>
    <contour>
      <point x="463" y="365" type="curve" smooth="yes"/>
      <point x="463" y="526"/>
      <point x="372" y="610"/>
      <point x="265" y="610" type="curve" smooth="yes"/>
      <point x="222" y="610"/>
      <point x="176" y="596"/>
      <point x="131" y="567" type="curve"/>
      <point x="147" y="542" type="line"/>
      <point x="189" y="571"/>
      <point x="227" y="583"/>
      <point x="260" y="583" type="curve" smooth="yes"/>
      <point x="338" y="583"/>
      <point x="388" y="512"/>
      <point x="388" y="403" type="curve" smooth="yes"/>
      <point x="388" y="367"/>
      <point x="382" y="328"/>
      <point x="370" y="287" type="curve"/>
      <point x="391" y="289" type="line"/>
      <point x="361" y="354"/>
      <point x="306" y="383"/>
      <point x="248" y="383" type="curve" smooth="yes"/>
      <point x="143" y="383"/>
      <point x="40" y="295"/>
      <point x="40" y="157" type="curve" smooth="yes"/>
      <point x="40" y="54"/>
      <point x="115" y="-10"/>
      <point x="207" y="-10" type="curve" smooth="yes"/>
      <point x="375" y="-10"/>
      <point x="463" y="167"/>
    </contour>
    <contour>
      <point x="125" y="141" type="curve" smooth="yes"/>
      <point x="125" y="287"/>
      <point x="191" y="358"/>
      <point x="259" y="358" type="curve" smooth="yes"/>
      <point x="314" y="358"/>
      <point x="354" y="313"/>
      <point x="354" y="227" type="curve" smooth="yes"/>
      <point x="354" y="90"/>
      <point x="283" y="14"/>
      <point x="213" y="14" type="curve" smooth="yes"/>
      <point x="161" y="14"/>
      <point x="125" y="54"/>
    </contour>
  </outline>
</glyph>
<glyph name="integral" format="1">
  <advance width="356"/>
  <unicode hex="222B"/>
  <outline>
    <contour>
      <point x="231" y="120" type="curve" smooth="yes"/>
      <point x="231" y="283"/>
      <point x="212" y="416"/>
      <point x="212" y="569" type="curve" smooth="yes"/>
      <point x="212" y="639"/>
      <point x="222" y="674"/>
      <point x="255" y="674" type="curve" smooth="yes"/>
      <point x="304" y="674"/>
      <point x="259" y="573"/>
      <point x="333" y="573" type="curve" smooth="yes"/>
      <point x="361" y="573"/>
      <point x="376" y="595"/>
      <point x="376" y="620" type="curve" smooth="yes"/>
      <point x="376" y="656"/>
      <point x="346" y="700"/>
      <point x="278" y="700" type="curve" smooth="yes"/>
      <point x="202" y="700"/>
      <point x="135" y="645"/>
      <point x="135" y="364" type="curve" smooth="yes"/>
      <point x="135" y="216"/>
      <point x="152" y="62"/>
      <point x="152" y="-88" type="curve" smooth="yes"/>
      <point x="152" y="-196"/>
      <point x="140" y="-263"/>
      <point x="99" y="-263" type="curve" smooth="yes"/>
      <point x="41" y="-263"/>
      <point x="110" y="-156"/>
      <point x="25" y="-156" type="curve" smooth="yes"/>
      <point x="-5" y="-156"/>
      <point x="-20" y="-178"/>
      <point x="-20" y="-204" type="curve" smooth="yes"/>
      <point x="-20" y="-241"/>
      <point x="11" y="-285"/>
      <point x="78" y="-285" type="curve" smooth="yes"/>
      <point x="165" y="-285"/>
      <point x="231" y="-204"/>
    </contour>
  </outline>
</glyph>
<glyph name="commaaccent" format="1">
  <advance width="500"/>
  <unicode hex="F6C3"/>
  <outline>
    <contour>
      <point x="250" y="0" type="move" name="_bottom"/>
    </contour>
    <contour>
      <point x="307" y="-109" type="curve" smooth="yes"/>
      <point x="307" y="-67"/>
      <point x="286" y="-36"/>
      <point x="246" y="-36" type="curve" smooth="yes"/>
      <point x="217" y="-36"/>
      <point x="193" y="-60"/>
      <point x="193" y="-91" type="curve" smooth="yes"/>
      <point x="193" y="-120"/>
      <point x="215" y="-137"/>
      <point x="238" y="-142" type="curve" smooth="yes"/>
      <point x="253" y="-145"/>
      <point x="263" y="-150"/>
      <point x="263" y="-160" type="curve" smooth="yes"/>
      <point x="263" y="-179"/>
      <point x="241" y="-212"/>
      <point x="214" y="-240" type="curve"/>
      <point x="238" y="-256" type="line"/>
      <point x="283" y="-210"/>
      <point x="307" y="-154"/>
    </contour>
  </outline>
</glyph>
<glyph name="fl" format="1">
  <advance width="581"/>
  <unicode hex="FB02"/>
  <outline>
    <contour>
      <point x="556" y="0" type="line"/>
      <point x="556" y="22"/>
      <point x="551" y="26"/>
      <point x="532" y="26" type="curve" smooth="yes"/>
      <point x="477" y="26" type="line"/>
      <point x="477" y="650" type="line"/>
      <point x="324" y="650" type="line"/>
      <point x="402" y="624" type="line"/>
      <point x="402" y="80" type="line" smooth="yes"/>
      <point x="402" y="35"/>
      <point x="384" y="26"/>
      <point x="329" y="26" type="curve"/>
      <point x="329" y="0" type="line"/>
    </contour>
    <contour>
      <point x="261" y="0" type="line"/>
      <point x="261" y="22"/>
      <point x="256" y="26"/>
      <point x="237" y="26" type="curve" smooth="yes"/>
      <point x="181" y="26" type="line"/>
      <point x="181" y="431" type="line"/>
      <point x="106" y="441" type="line"/>
      <point x="106" y="78" type="line" smooth="yes"/>
      <point x="106" y="36"/>
      <point x="72" y="26"/>
      <point x="30" y="26" type="curve"/>
      <point x="30" y="0" type="line"/>
    </contour>
    <contour>
      <point x="291" y="399" type="line"/>
      <point x="291" y="425" type="line"/>
      <point x="35" y="425" type="line"/>
      <point x="35" y="399" type="line"/>
    </contour>
    <contour>
      <point x="293" y="629" type="curve" smooth="yes"/>
      <point x="330" y="629"/>
      <point x="371" y="621"/>
      <point x="407" y="607" type="curve"/>
      <point x="407" y="644" type="line"/>
      <point x="358" y="651"/>
      <point x="320" y="655"/>
      <point x="281" y="655" type="curve" smooth="yes"/>
      <point x="180" y="655"/>
      <point x="106" y="587"/>
      <point x="106" y="441" type="curve"/>
      <point x="181" y="431" type="line"/>
      <point x="181" y="578"/>
      <point x="208" y="629"/>
    </contour>
  </outline>
</glyph>
<glyph name="five.numr" format="1">
  <advance width="500"/>
  <outline>
    <contour>
      <point x="462" y="190" type="curve" smooth="yes"/>
      <point x="462" y="282"/>
      <point x="392" y="371"/>
      <point x="255" y="371" type="curve" smooth="yes"/>
      <point x="201" y="371"/>
      <point x="145" y="353"/>
      <point x="102" y="316" type="curve"/>
      <point x="123" y="295" type="line"/>
      <point x="157" y="323"/>
      <point x="196" y="334"/>
      <point x="231" y="334" type="curve" smooth="yes"/>
      <point x="332" y="334"/>
      <point x="375" y="261"/>
      <point x="375" y="183" type="curve" smooth="yes"/>
      <point x="375" y="91"/>
      <point x="322" y="16"/>
      <point x="219" y="16" type="curve" smooth="yes"/>
      <point x="84" y="16"/>
      <point x="190" y="160"/>
      <point x="90" y="160" type="curve" smooth="yes"/>
      <point x="56" y="160"/>
      <point x="43" y="139"/>
      <point x="43" y="111" type="curve" smooth="yes"/>
      <point x="43" y="61"/>
      <point x="97" y="-10"/>
      <point x="223" y="-10" type="curve" smooth="yes"/>
      <point x="381" y="-10"/>
      <point x="462" y="92"/>
    </contour>
    <contour>
      <point x="123" y="579" type="line"/>
      <point x="88" y="579" type="line"/>
      <point x="88" y="321" type="line"/>
      <point x="123" y="295" type="line"/>
    </contour>
    <contour>
      <point x="424" y="647" type="curve"/>
      <point x="400" y="647" type="line"/>
      <point x="390" y="608"/>
      <point x="368" y="598"/>
      <point x="274" y="598" type="curve" smooth="yes"/>
      <point x="228" y="598"/>
      <point x="163" y="602"/>
      <point x="88" y="605" type="curve"/>
      <point x="88" y="533" type="line"/>
      <point x="151" y="526"/>
      <point x="213" y="522"/>
      <point x="261" y="522" type="curve" smooth="yes"/>
      <point x="402" y="522"/>
      <point x="424" y="547"/>
    </contour>
  </outline>
</glyph>
<glyph name="si_B.halant" format="1">
  <advance width="604"/>
  <outline>
    <contour>
      <point x="99" y="74" type="curve" smooth="yes"/>
      <point x="99" y="49"/>
      <point x="121" y="26"/>
      <point x="146" y="26" type="curve" smooth="yes"/>
      <point x="171" y="26"/>
      <point x="194" y="49"/>
      <point x="194" y="74" type="curve" smooth="yes"/>
      <point x="194" y="99"/>
      <point x="171" y="122"/>
      <point x="146" y="122" type="curve" smooth="yes"/>
      <point x="121" y="122"/>
      <point x="99" y="99"/>
    </contour>
    <contour>
      <point x="134" y="530" type="curve" smooth="yes"/>
      <point x="134" y="518"/>
      <point x="157" y="514"/>
      <point x="157" y="503" type="curve" smooth="yes"/>
      <point x="157" y="501"/>
      <point x="156" y="498"/>
      <point x="154" y="496" type="curve"/>
      <point x="186" y="502"/>
      <point x="226" y="507"/>
      <point x="271" y="507" type="curve" smooth="yes"/>
      <point x="376" y="507"/>
      <point x="466" y="474"/>
      <point x="513" y="412" type="curve"/>
      <point x="481" y="524"/>
      <point x="388" y="576"/>
      <point x="275" y="576" type="curve" smooth="yes"/>
      <point x="205" y="576"/>
      <point x="134" y="553"/>
    </contour>
    <contour>
      <point x="32" y="183" type="curve" smooth="yes"/>
      <point x="32" y="307"/>
      <point x="117" y="387"/>
      <point x="241" y="387" type="curve" smooth="yes"/>
      <point x="331" y="387"/>
      <point x="413" y="337"/>
      <point x="413" y="251" type="curve" smooth="yes"/>
      <point x="413" y="123"/>
      <point x="297" y="163"/>
      <point x="297" y="99" type="curve" smooth="yes"/>
      <point x="297" y="75"/>
      <point x="313" y="62"/>
      <point x="343" y="62" type="curve" smooth="yes"/>
      <point x="454" y="62"/>
      <point x="521" y="184"/>
      <point x="521" y="282" type="curve" smooth="yes"/>
      <point x="521" y="418"/>
      <point x="414" y="482"/>
      <point x="263" y="482" type="curve" smooth="yes"/>
      <point x="228" y="482"/>
      <point x="193" y="479"/>
      <point x="158" y="472" type="curve" smooth="yes"/>
      <point x="120" y="464"/>
      <point x="81" y="452"/>
      <point x="39" y="432" type="curve"/>
      <point x="39" y="462" type="line"/>
      <point x="70" y="474"/>
      <point x="121" y="487"/>
      <point x="121" y="496" type="curve" smooth="yes"/>
      <point x="121" y="508"/>
      <point x="94" y="512"/>
      <point x="94" y="533" type="curve" smooth="yes"/>
      <point x="94" y="569"/>
      <point x="158" y="614"/>
      <point x="270" y="614" type="curve" smooth="yes"/>
      <point x="473" y="614"/>
      <point x="542" y="479"/>
      <point x="554" y="348" type="curve" smooth="yes"/>
      <point x="557" y="335"/>
      <point x="562" y="293"/>
      <point x="562" y="261" type="curve" smooth="yes"/>
      <point x="561" y="135"/>
      <point x="505" y="-2"/>
      <point x="372" y="-2" type="curve" smooth="yes"/>
      <point x="313" y="-2"/>
      <point x="267" y="34"/>
      <point x="267" y="92" type="curve" smooth="yes"/>
      <point x="267" y="182"/>
      <point x="379" y="152"/>
      <point x="379" y="231" type="curve" smooth="yes"/>
      <point x="379" y="289"/>
      <point x="301" y="312"/>
      <point x="231" y="312" type="curve" smooth="yes"/>
      <point x="142" y="312"/>
      <point x="62" y="261"/>
      <point x="62" y="158" type="curve" smooth="yes"/>
      <point x="62" y="133"/>
      <point x="67" y="104"/>
      <point x="75" y="89" type="curve"/>
      <point x="79" y="123"/>
      <point x="106" y="149"/>
      <point x="146" y="149" type="curve" smooth="yes"/>
      <point x="188" y="149"/>
      <point x="224" y="116"/>
      <point x="224" y="75" type="curve" smooth="yes"/>
      <point x="224" y="28"/>
      <point x="185" y="-1"/>
      <point x="146" y="-1" type="curve" smooth="yes"/>
      <point x="66" y="-1"/>
      <point x="32" y="89"/>
    </contour>
  </outline>
</glyph>
<glyph name="si_BhIi" format="1">
  <advance width="654"/>
  <outline>
    <contour>
      <point x="409" y="508" type="curve" smooth="yes"/>
      <point x="409" y="475"/>
      <point x="440" y="447"/>
      <point x="477" y="447" type="curve" smooth="yes"/>
      <point x="514" y="447"/>
      <point x="545" y="475"/>
      <point x="545" y="508" type="curve" smooth="yes"/>
      <point x="545" y="541"/>
      <point x="514" y="568"/>
      <point x="477" y="568" type="curve" smooth="yes"/>
      <point x="440" y="568"/>
      <point x="409" y="541"/>
    </contour>
    <contour>
      <point x="174" y="524" type="curve" smooth="yes"/>
      <point x="174" y="613"/>
      <point x="270" y="651"/>
      <point x="370" y="651" type="curve" smooth="yes"/>
      <point x="473" y="651"/>
      <point x="573" y="604"/>
      <point x="573" y="513" type="curve" smooth="yes"/>
      <point x="573" y="446"/>
      <point x="517" y="421"/>
      <point x="475" y="421" type="curve" smooth="yes"/>
      <point x="432" y="421"/>
      <point x="380" y="453"/>
      <point x="380" y="507" type="curve" smooth="yes"/>
      <point x="380" y="552"/>
      <point x="413" y="577"/>
      <point x="429" y="580" type="curve"/>
      <point x="408" y="583"/>
      <point x="393" y="584"/>
      <point x="370" y="584" type="curve" smooth="yes"/>
      <point x="291" y="584"/>
      <point x="214" y="555"/>
      <point x="214" y="504" type="curve" smooth="yes"/>
      <point x="214" y="445"/>
      <point x="345" y="421"/>
      <point x="429" y="421" type="curve" smooth="yes"/>
      <point x="430" y="421"/>
      <point x="430" y="422"/>
      <point x="431" y="422" type="curve"/>
      <point x="415" y="399" type="line"/>
      <point x="259" y="402"/>
      <point x="174" y="451"/>
    </contour>
    <component base="si_Bha"/>
  </outline>
</glyph>
<glyph name="si_DVa" format="1">
  <advance width="671"/>
  <outline>
    <contour>
      <point x="122" y="161" type="curve" smooth="yes"/>
      <point x="122" y="244"/>
      <point x="185" y="297"/>
      <point x="284" y="297" type="curve" smooth="yes"/>
      <point x="344" y="297" type="line"/>
      <point x="344" y="299"/>
      <point x="344" y="299"/>
      <point x="344" y="301" type="curve" smooth="yes"/>
      <point x="344" y="354"/>
      <point x="310" y="386"/>
      <point x="274" y="386" type="curve" smooth="yes"/>
      <point x="230" y="386"/>
      <point x="223" y="363"/>
      <point x="217" y="347" type="curve" smooth="yes"/>
      <point x="210" y="328"/>
      <point x="202" y="315"/>
      <point x="181" y="315" type="curve" smooth="yes"/>
      <point x="165" y="315"/>
      <point x="145" y="326"/>
      <point x="145" y="352" type="curve" smooth="yes"/>
      <point x="145" y="394"/>
      <point x="193" y="422"/>
      <point x="247" y="422" type="curve" smooth="yes"/>
      <point x="333" y="422"/>
      <point x="375" y="367"/>
      <point x="375" y="283" type="curve" smooth="yes"/>
      <point x="375" y="280"/>
      <point x="375" y="276"/>
      <point x="375" y="273" type="curve"/>
      <point x="287" y="273" type="line" smooth="yes"/>
      <point x="215" y="273"/>
      <point x="156" y="239"/>
      <point x="156" y="176" type="curve" smooth="yes"/>
      <point x="156" y="92"/>
      <point x="266" y="69"/>
      <point x="354" y="69" type="curve" smooth="yes"/>
      <point x="503" y="69"/>
      <point x="592" y="154"/>
      <point x="592" y="293" type="curve" smooth="yes"/>
      <point x="592" y="432"/>
      <point x="490" y="540"/>
      <point x="359" y="540" type="curve" smooth="yes"/>
      <point x="282" y="540"/>
      <point x="221" y="513"/>
      <point x="177" y="459" type="curve"/>
      <point x="146" y="459" type="line"/>
      <point x="194" y="527"/>
      <point x="263" y="563"/>
      <point x="359" y="563" type="curve" smooth="yes"/>
      <point x="515" y="563"/>
      <point x="625" y="433"/>
      <point x="625" y="268" type="curve" smooth="yes"/>
      <point x="625" y="112"/>
      <point x="530" y="0"/>
      <point x="351" y="0" type="curve" smooth="yes"/>
      <point x="233" y="0"/>
      <point x="122" y="45"/>
    </contour>
    <contour>
      <point x="26" y="216" type="curve" smooth="yes"/>
      <point x="26" y="345"/>
      <point x="97" y="423"/>
      <point x="233" y="423" type="curve" smooth="yes"/>
      <point x="242" y="423"/>
      <point x="265" y="423"/>
      <point x="286" y="417" type="curve"/>
      <point x="265" y="406"/>
      <point x="190" y="397"/>
      <point x="173" y="391" type="curve"/>
      <point x="100" y="373"/>
      <point x="55" y="312"/>
      <point x="55" y="213" type="curve" smooth="yes"/>
      <point x="55" y="134"/>
      <point x="81" y="73"/>
      <point x="132" y="29" type="curve"/>
      <point x="132" y="0" type="line"/>
      <point x="68" y="32"/>
      <point x="26" y="117"/>
    </contour>
  </outline>
</glyph>
<glyph name="si_Dha.reph" format="1">
  <advance width="623"/>
  <outline>
    <contour>
      <point x="268" y="607" type="curve" smooth="yes"/>
      <point x="268" y="586"/>
      <point x="286" y="571"/>
      <point x="307" y="571" type="curve" smooth="yes"/>
      <point x="328" y="571"/>
      <point x="347" y="586"/>
      <point x="347" y="607" type="curve" smooth="yes"/>
      <point x="347" y="628"/>
      <point x="328" y="644"/>
      <point x="307" y="644" type="curve" smooth="yes"/>
      <point x="286" y="644"/>
      <point x="268" y="628"/>
    </contour>
    <contour>
      <point x="168" y="626" type="curve" smooth="yes"/>
      <point x="168" y="688"/>
      <point x="225" y="725"/>
      <point x="305" y="725" type="curve" smooth="yes"/>
      <point x="380" y="725"/>
      <point x="441" y="682"/>
      <point x="441" y="613" type="curve" smooth="yes"/>
      <point x="441" y="590"/>
      <point x="435" y="569"/>
      <point x="418" y="550" type="curve"/>
      <point x="385" y="550" type="line"/>
      <point x="398" y="562"/>
      <point x="412" y="586"/>
      <point x="412" y="612" type="curve" smooth="yes"/>
      <point x="412" y="668"/>
      <point x="363" y="698"/>
      <point x="303" y="698" type="curve" smooth="yes"/>
      <point x="251" y="698"/>
      <point x="198" y="678"/>
      <point x="198" y="626" type="curve" smooth="yes"/>
      <point x="198" y="588"/>
      <point x="239" y="569"/>
      <point x="261" y="567" type="curve"/>
      <point x="253" y="573"/>
      <point x="240" y="587"/>
      <point x="240" y="608" type="curve" smooth="yes"/>
      <point x="240" y="642"/>
      <point x="272" y="667"/>
      <point x="307" y="667" type="curve" smooth="yes"/>
      <point x="347" y="667"/>
      <point x="373" y="640"/>
      <point x="373" y="606" type="curve" smooth="yes"/>
      <point x="373" y="568"/>
      <point x="340" y="543"/>
      <point x="283" y="543" type="curve" smooth="yes"/>
      <point x="225" y="543"/>
      <point x="168" y="571"/>
    </contour>
    <component base="si_Dha"/>
  </outline>
</glyph>
<glyph name="si_GU" format="1">
  <advance width="621"/>
  <outline>
    <contour>
      <point x="299" y="-78" type="curve" smooth="yes"/>
      <point x="299" y="-29"/>
      <point x="328" y="9"/>
      <point x="370" y="21" type="curve"/>
      <point x="376" y="-6" type="line"/>
      <point x="355" y="-14"/>
      <point x="336" y="-34"/>
      <point x="336" y="-62" type="curve" smooth="yes"/>
      <point x="336" y="-107"/>
      <point x="386" y="-129"/>
      <point x="436" y="-129" type="curve" smooth="yes"/>
      <point x="496" y="-129"/>
      <point x="541" y="-92"/>
      <point x="541" y="-44" type="curve" smooth="yes"/>
      <point x="541" y="-41"/>
      <point x="540" y="-38"/>
      <point x="540" y="-35" type="curve"/>
      <point x="569" y="-35" type="line"/>
      <point x="571" y="-44"/>
      <point x="571" y="-59"/>
      <point x="571" y="-68" type="curve" smooth="yes"/>
      <point x="571" y="-120"/>
      <point x="530" y="-188"/>
      <point x="431" y="-188" type="curve" smooth="yes"/>
      <point x="369" y="-188"/>
      <point x="299" y="-145"/>
    </contour>
    <contour>
      <point x="33" y="202" type="curve" smooth="yes"/>
      <point x="33" y="322"/>
      <point x="107" y="422"/>
      <point x="215" y="422" type="curve" smooth="yes"/>
      <point x="219" y="422"/>
      <point x="224" y="421"/>
      <point x="228" y="421" type="curve"/>
      <point x="228" y="398" type="line"/>
      <point x="225" y="398"/>
      <point x="220" y="398"/>
      <point x="217" y="398" type="curve" smooth="yes"/>
      <point x="133" y="398"/>
      <point x="67" y="325"/>
      <point x="67" y="225" type="curve" smooth="yes"/>
      <point x="67" y="144"/>
      <point x="114" y="69"/>
      <point x="201" y="69" type="curve" smooth="yes"/>
      <point x="259" y="69"/>
      <point x="311" y="96"/>
      <point x="311" y="154" type="curve" smooth="yes"/>
      <point x="311" y="191"/>
      <point x="291" y="212"/>
      <point x="261" y="212" type="curve" smooth="yes"/>
      <point x="254" y="212"/>
      <point x="244" y="210"/>
      <point x="237" y="205" type="curve"/>
      <point x="236" y="199"/>
      <point x="235" y="191"/>
      <point x="235" y="188" type="curve"/>
      <point x="211" y="188" type="line"/>
      <point x="221" y="310"/>
      <point x="281" y="422"/>
      <point x="400" y="422" type="curve" smooth="yes"/>
      <point x="509" y="422"/>
      <point x="572" y="324"/>
      <point x="572" y="212" type="curve" smooth="yes"/>
      <point x="572" y="93"/>
      <point x="494" y="0"/>
      <point x="416" y="0" type="curve" smooth="yes"/>
      <point x="406" y="0"/>
      <point x="385" y="-2"/>
      <point x="371" y="-8" type="curve"/>
      <point x="361" y="18" type="line"/>
      <point x="380" y="26"/>
      <point x="397" y="26"/>
      <point x="405" y="26" type="curve" smooth="yes"/>
      <point x="467" y="26"/>
      <point x="530" y="97"/>
      <point x="530" y="195" type="curve" smooth="yes"/>
      <point x="530" y="294"/>
      <point x="473" y="362"/>
      <point x="384" y="362" type="curve" smooth="yes"/>
      <point x="309" y="362"/>
      <point x="257" y="305"/>
      <point x="241" y="230" type="curve"/>
      <point x="249" y="234"/>
      <point x="257" y="235"/>
      <point x="264" y="235" type="curve" smooth="yes"/>
      <point x="311" y="235"/>
      <point x="344" y="197"/>
      <point x="344" y="133" type="curve" smooth="yes"/>
      <point x="344" y="55"/>
      <point x="288" y="-2"/>
      <point x="203" y="-2" type="curve" smooth="yes"/>
      <point x="95" y="-2"/>
      <point x="33" y="94"/>
    </contour>
  </outline>
</glyph>
<glyph name="si_HRI" format="1">
  <advance width="637"/>
  <outline>
    <contour>
      <point x="60" y="-43" type="curve"/>
      <point x="86" y="-43" type="line"/>
      <point x="121" y="-116"/>
      <point x="193" y="-153"/>
      <point x="298" y="-153" type="curve" smooth="yes"/>
      <point x="442" y="-153"/>
      <point x="562" y="-88"/>
      <point x="562" y="49" type="curve" smooth="yes"/>
      <point x="562" y="70"/>
      <point x="556" y="91"/>
      <point x="549" y="100" type="curve"/>
      <point x="562" y="130" type="line"/>
      <point x="581" y="104"/>
      <point x="589" y="73"/>
      <point x="589" y="37" type="curve" smooth="yes"/>
      <point x="589" y="-121"/>
      <point x="459" y="-214"/>
      <point x="314" y="-214" type="curve" smooth="yes"/>
      <point x="180" y="-214"/>
      <point x="97" y="-149"/>
    </contour>
    <component base="si_HI"/>
  </outline>
</glyph>
<glyph name="si_H.halant" format="1">
  <advance width="637"/>
  <outline>
    <contour>
      <point x="442" y="378" type="line"/>
      <point x="442" y="665" type="line"/>
      <point x="495" y="624"/>
      <point x="589" y="619"/>
      <point x="589" y="529" type="curve" smooth="yes"/>
      <point x="589" y="486"/>
      <point x="555" y="457"/>
      <point x="513" y="457" type="curve" smooth="yes"/>
      <point x="498" y="457"/>
      <point x="484" y="460"/>
      <point x="469" y="467" type="curve"/>
      <point x="469" y="361" type="line"/>
    </contour>
    <contour>
      <point x="469" y="491" type="line"/>
      <point x="478" y="486"/>
      <point x="488" y="484"/>
      <point x="501" y="484" type="curve" smooth="yes"/>
      <point x="538" y="484"/>
      <point x="553" y="509"/>
      <point x="553" y="532" type="curve" smooth="yes"/>
      <point x="553" y="573"/>
      <point x="515" y="593"/>
      <point x="469" y="623" type="curve"/>
    </contour>
    <component base="si_Ha"/>
  </outline>
</glyph>
<glyph name="si_J.halant" format="1">
  <advance width="583"/>
  <outline>
    <contour>
      <point x="293" y="348" type="line"/>
      <point x="293" y="738" type="line"/>
      <point x="349" y="692"/>
      <point x="437" y="687"/>
      <point x="437" y="611" type="curve" smooth="yes"/>
      <point x="437" y="566"/>
      <point x="403" y="537"/>
      <point x="361" y="537" type="curve" smooth="yes"/>
      <point x="347" y="537"/>
      <point x="333" y="538"/>
      <point x="318" y="543" type="curve"/>
      <point x="318" y="391" type="line"/>
    </contour>
    <contour>
      <point x="318" y="567" type="line"/>
      <point x="328" y="563"/>
      <point x="339" y="562"/>
      <point x="354" y="562" type="curve" smooth="yes"/>
      <point x="386" y="562"/>
      <point x="400" y="585"/>
      <point x="400" y="607" type="curve" smooth="yes"/>
      <point x="400" y="656"/>
      <point x="354" y="671"/>
      <point x="318" y="695" type="curve"/>
    </contour>
    <component base="si_Ja"/>
  </outline>
</glyph>
<glyph name="si_KhIi" format="1">
  <advance width="615"/>
  <outline>
    <contour>
      <point x="391" y="542" type="curve" smooth="yes"/>
      <point x="391" y="513"/>
      <point x="417" y="489"/>
      <point x="449" y="489" type="curve" smooth="yes"/>
      <point x="481" y="489"/>
      <point x="508" y="513"/>
      <point x="508" y="542" type="curve" smooth="yes"/>
      <point x="508" y="571"/>
      <point x="481" y="595"/>
      <point x="449" y="595" type="curve" smooth="yes"/>
      <point x="417" y="595"/>
      <point x="391" y="571"/>
    </contour>
    <contour>
      <point x="73" y="549" type="curve" smooth="yes"/>
      <point x="73" y="637"/>
      <point x="201" y="654"/>
      <point x="299" y="654" type="curve" smooth="yes"/>
      <point x="432" y="654"/>
      <point x="539" y="624"/>
      <point x="539" y="545" type="curve" smooth="yes"/>
      <point x="539" y="493"/>
      <point x="492" y="463"/>
      <point x="449" y="463" type="curve" smooth="yes"/>
      <point x="406" y="463"/>
      <point x="359" y="493"/>
      <point x="359" y="545" type="curve" smooth="yes"/>
      <point x="359" y="569"/>
      <point x="372" y="586"/>
      <point x="378" y="594" type="curve"/>
      <point x="371" y="595"/>
      <point x="340" y="597"/>
      <point x="299" y="597" type="curve" smooth="yes"/>
      <point x="225" y="597"/>
      <point x="114" y="592"/>
      <point x="114" y="541" type="curve" smooth="yes"/>
      <point x="114" y="496"/>
      <point x="177" y="496"/>
      <point x="277" y="492" type="curve" smooth="yes"/>
      <point x="340" y="489"/>
      <point x="432" y="487"/>
      <point x="486" y="448" type="curve" smooth="yes"/>
      <point x="534" y="413"/>
      <point x="569" y="348"/>
      <point x="569" y="268" type="curve"/>
      <point x="531" y="279" type="line"/>
      <point x="531" y="326"/>
      <point x="520" y="375"/>
      <point x="493" y="404" type="curve" smooth="yes"/>
      <point x="441" y="461"/>
      <point x="377" y="461"/>
      <point x="278" y="467" type="curve" smooth="yes"/>
      <point x="191" y="472"/>
      <point x="73" y="465"/>
    </contour>
    <contour>
      <point x="91" y="70" type="curve" smooth="yes"/>
      <point x="91" y="47"/>
      <point x="110" y="28"/>
      <point x="133" y="28" type="curve" smooth="yes"/>
      <point x="156" y="28"/>
      <point x="175" y="47"/>
      <point x="175" y="70" type="curve" smooth="yes"/>
      <point x="175" y="93"/>
      <point x="156" y="112"/>
      <point x="133" y="112" type="curve" smooth="yes"/>
      <point x="110" y="112"/>
      <point x="91" y="93"/>
    </contour>
    <contour>
      <point x="31" y="179" type="curve" smooth="yes"/>
      <point x="31" y="315"/>
      <point x="121" y="387"/>
      <point x="234" y="387" type="curve" smooth="yes"/>
      <point x="325" y="387"/>
      <point x="403" y="335"/>
      <point x="403" y="252" type="curve" smooth="yes"/>
      <point x="403" y="196"/>
      <point x="376" y="149"/>
      <point x="338" y="112" type="curve"/>
      <point x="341" y="113"/>
      <point x="344" y="113"/>
      <point x="347" y="113" type="curve" smooth="yes"/>
      <point x="375" y="113"/>
      <point x="381" y="69"/>
      <point x="424" y="69" type="curve" smooth="yes"/>
      <point x="482" y="69"/>
      <point x="531" y="183"/>
      <point x="531" y="284" type="curve"/>
      <point x="569" y="270" type="line"/>
      <point x="569" y="140"/>
      <point x="511" y="0"/>
      <point x="406" y="0" type="curve" smooth="yes"/>
      <point x="344" y="0"/>
      <point x="339" y="53"/>
      <point x="313" y="53" type="curve" smooth="yes"/>
      <point x="300" y="53"/>
      <point x="275" y="33"/>
      <point x="234" y="-21" type="curve"/>
      <point x="199" y="-18" type="line"/>
      <point x="212" y="-5"/>
      <point x="240" y="33"/>
      <point x="281" y="82" type="curve" smooth="yes"/>
      <point x="332" y="143"/>
      <point x="358" y="190"/>
      <point x="358" y="227" type="curve" smooth="yes"/>
      <point x="358" y="280"/>
      <point x="320" y="312"/>
      <point x="230" y="312" type="curve" smooth="yes"/>
      <point x="152" y="312"/>
      <point x="62" y="265"/>
      <point x="62" y="152" type="curve" smooth="yes"/>
      <point x="62" y="140"/>
      <point x="64" y="116"/>
      <point x="70" y="99" type="curve"/>
      <point x="78" y="126"/>
      <point x="106" y="142"/>
      <point x="132" y="142" type="curve" smooth="yes"/>
      <point x="177" y="142"/>
      <point x="205" y="113"/>
      <point x="205" y="70" type="curve" smooth="yes"/>
      <point x="205" y="36"/>
      <point x="176" y="-1"/>
      <point x="138" y="-1" type="curve" smooth="yes"/>
      <point x="55" y="-1"/>
      <point x="31" y="106"/>
    </contour>
  </outline>
</glyph>
<glyph name="si_KhRI" format="1">
  <advance width="615"/>
  <outline>
    <contour>
      <point x="55" y="-43" type="curve"/>
      <point x="81" y="-43" type="line"/>
      <point x="115" y="-116"/>
      <point x="183" y="-153"/>
      <point x="286" y="-153" type="curve" smooth="yes"/>
      <point x="426" y="-153"/>
      <point x="541" y="-88"/>
      <point x="541" y="49" type="curve" smooth="yes"/>
      <point x="541" y="70"/>
      <point x="536" y="91"/>
      <point x="529" y="100" type="curve"/>
      <point x="542" y="130" type="line"/>
      <point x="560" y="104"/>
      <point x="568" y="73"/>
      <point x="568" y="37" type="curve" smooth="yes"/>
      <point x="568" y="-121"/>
      <point x="443" y="-214"/>
      <point x="302" y="-214" type="curve" smooth="yes"/>
      <point x="172" y="-214"/>
      <point x="91" y="-149"/>
    </contour>
    <contour>
      <point x="73" y="549" type="curve" smooth="yes"/>
      <point x="73" y="637"/>
      <point x="201" y="654"/>
      <point x="299" y="654" type="curve" smooth="yes"/>
      <point x="432" y="654"/>
      <point x="539" y="624"/>
      <point x="539" y="541" type="curve" smooth="yes"/>
      <point x="539" y="490"/>
      <point x="486" y="469"/>
      <point x="453" y="463" type="curve"/>
      <point x="404" y="479" type="line"/>
      <point x="439" y="480"/>
      <point x="493" y="494"/>
      <point x="493" y="531" type="curve" smooth="yes"/>
      <point x="493" y="586"/>
      <point x="404" y="597"/>
      <point x="299" y="597" type="curve" smooth="yes"/>
      <point x="225" y="597"/>
      <point x="114" y="592"/>
      <point x="114" y="541" type="curve" smooth="yes"/>
      <point x="114" y="496"/>
      <point x="177" y="496"/>
      <point x="277" y="492" type="curve" smooth="yes"/>
      <point x="340" y="489"/>
      <point x="432" y="487"/>
      <point x="486" y="448" type="curve" smooth="yes"/>
      <point x="534" y="413"/>
      <point x="569" y="348"/>
      <point x="569" y="268" type="curve"/>
      <point x="531" y="279" type="line"/>
      <point x="531" y="326"/>
      <point x="520" y="375"/>
      <point x="493" y="404" type="curve" smooth="yes"/>
      <point x="441" y="461"/>
      <point x="377" y="461"/>
      <point x="278" y="467" type="curve" smooth="yes"/>
      <point x="191" y="472"/>
      <point x="73" y="465"/>
    </contour>
    <contour>
      <point x="91" y="70" type="curve" smooth="yes"/>
      <point x="91" y="47"/>
      <point x="110" y="28"/>
      <point x="133" y="28" type="curve" smooth="yes"/>
      <point x="156" y="28"/>
      <point x="175" y="47"/>
      <point x="175" y="70" type="curve" smooth="yes"/>
      <point x="175" y="93"/>
      <point x="156" y="112"/>
      <point x="133" y="112" type="curve" smooth="yes"/>
      <point x="110" y="112"/>
      <point x="91" y="93"/>
    </contour>
    <contour>
      <point x="31" y="179" type="curve" smooth="yes"/>
      <point x="31" y="315"/>
      <point x="121" y="387"/>
      <point x="234" y="387" type="curve" smooth="yes"/>
      <point x="325" y="387"/>
      <point x="403" y="335"/>
      <point x="403" y="252" type="curve" smooth="yes"/>
      <point x="403" y="196"/>
      <point x="376" y="149"/>
      <point x="338" y="112" type="curve"/>
      <point x="341" y="113"/>
      <point x="344" y="113"/>
      <point x="347" y="113" type="curve" smooth="yes"/>
      <point x="375" y="113"/>
      <point x="381" y="69"/>
      <point x="424" y="69" type="curve" smooth="yes"/>
      <point x="482" y="69"/>
      <point x="531" y="183"/>
      <point x="531" y="284" type="curve"/>
      <point x="569" y="270" type="line"/>
      <point x="569" y="140"/>
      <point x="511" y="0"/>
      <point x="406" y="0" type="curve" smooth="yes"/>
      <point x="344" y="0"/>
      <point x="339" y="53"/>
      <point x="313" y="53" type="curve" smooth="yes"/>
      <point x="300" y="53"/>
      <point x="275" y="33"/>
      <point x="234" y="-21" type="curve"/>
      <point x="199" y="-18" type="line"/>
      <point x="212" y="-5"/>
      <point x="240" y="33"/>
      <point x="281" y="82" type="curve" smooth="yes"/>
      <point x="332" y="143"/>
      <point x="358" y="190"/>
      <point x="358" y="227" type="curve" smooth="yes"/>
      <point x="358" y="280"/>
      <point x="320" y="312"/>
      <point x="230" y="312" type="curve" smooth="yes"/>
      <point x="152" y="312"/>
      <point x="62" y="265"/>
      <point x="62" y="152" type="curve" smooth="yes"/>
      <point x="62" y="140"/>
      <point x="64" y="116"/>
      <point x="70" y="99" type="curve"/>
      <point x="78" y="126"/>
      <point x="106" y="142"/>
      <point x="132" y="142" type="curve" smooth="yes"/>
      <point x="177" y="142"/>
      <point x="205" y="113"/>
      <point x="205" y="70" type="curve" smooth="yes"/>
      <point x="205" y="36"/>
      <point x="176" y="-1"/>
      <point x="138" y="-1" type="curve" smooth="yes"/>
      <point x="55" y="-1"/>
      <point x="31" y="106"/>
    </contour>
  </outline>
</glyph>
<glyph name="si_MatraUu.alt" format="1">
  <advance width="728"/>
  <outline>
    <contour>
      <point x="-287" y="-126" type="curve" smooth="yes"/>
      <point x="-287" y="-91"/>
      <point x="-257" y="-69"/>
      <point x="-225" y="-65" type="curve"/>
      <point x="-278" y="-38" type="line"/>
      <point x="-193" y="-14" type="line"/>
      <point x="-229" y="0" type="line"/>
      <point x="-229" y="21" type="line"/>
      <point x="-137" y="-14" type="line"/>
      <point x="-221" y="-42" type="line"/>
      <point x="-162" y="-74" type="line"/>
      <point x="-189" y="-81"/>
      <point x="-248" y="-83"/>
      <point x="-248" y="-112" type="curve" smooth="yes"/>
      <point x="-248" y="-142"/>
      <point x="-207" y="-151"/>
      <point x="-166" y="-151" type="curve" smooth="yes"/>
      <point x="-113" y="-151"/>
      <point x="-68" y="-128"/>
      <point x="-68" y="-80" type="curve" smooth="yes"/>
      <point x="-68" y="-75"/>
      <point x="-69" y="-68"/>
      <point x="-74" y="-58" type="curve"/>
      <point x="-42" y="-58" type="line"/>
      <point x="-38" y="-70"/>
      <point x="-38" y="-81"/>
      <point x="-38" y="-92" type="curve" smooth="yes"/>
      <point x="-38" y="-157"/>
      <point x="-88" y="-200"/>
      <point x="-168" y="-200" type="curve" smooth="yes"/>
      <point x="-225" y="-200"/>
      <point x="-287" y="-183"/>
    </contour>
  </outline>
</glyph>
<glyph name="si_NV.halant" format="1">
  <advance width="999"/>
  <outline>
    <contour>
      <point x="459" y="161" type="curve" smooth="yes"/>
      <point x="459" y="244"/>
      <point x="522" y="297"/>
      <point x="621" y="297" type="curve" smooth="yes"/>
      <point x="681" y="297" type="line" smooth="yes"/>
      <point x="681" y="299"/>
      <point x="681" y="299"/>
      <point x="681" y="301" type="curve" smooth="yes"/>
      <point x="681" y="354"/>
      <point x="647" y="386"/>
      <point x="611" y="386" type="curve" smooth="yes"/>
      <point x="567" y="386"/>
      <point x="561" y="363"/>
      <point x="555" y="347" type="curve" smooth="yes"/>
      <point x="548" y="328"/>
      <point x="539" y="315"/>
      <point x="518" y="315" type="curve" smooth="yes"/>
      <point x="502" y="315"/>
      <point x="481" y="326"/>
      <point x="481" y="351" type="curve" smooth="yes"/>
      <point x="481" y="395"/>
      <point x="530" y="422"/>
      <point x="584" y="422" type="curve" smooth="yes"/>
      <point x="670" y="422"/>
      <point x="712" y="367"/>
      <point x="712" y="283" type="curve" smooth="yes"/>
      <point x="712" y="280"/>
      <point x="712" y="276"/>
      <point x="712" y="273" type="curve" smooth="yes"/>
      <point x="624" y="273" type="line" smooth="yes"/>
      <point x="552" y="273"/>
      <point x="493" y="239"/>
      <point x="493" y="176" type="curve" smooth="yes"/>
      <point x="493" y="92"/>
      <point x="602" y="69"/>
      <point x="690" y="69" type="curve" smooth="yes"/>
      <point x="834" y="69"/>
      <point x="929" y="150"/>
      <point x="929" y="285" type="curve" smooth="yes"/>
      <point x="929" y="410"/>
      <point x="826" y="482"/>
      <point x="686" y="482" type="curve" smooth="yes"/>
      <point x="612" y="482"/>
      <point x="543" y="468"/>
      <point x="465" y="432" type="curve"/>
      <point x="465" y="462" type="line"/>
      <point x="496" y="474"/>
      <point x="545" y="487"/>
      <point x="545" y="496" type="curve" smooth="yes"/>
      <point x="545" y="508"/>
      <point x="518" y="512"/>
      <point x="518" y="533" type="curve" smooth="yes"/>
      <point x="518" y="569"/>
      <point x="579" y="614"/>
      <point x="691" y="614" type="curve" smooth="yes"/>
      <point x="881" y="614"/>
      <point x="942" y="479"/>
      <point x="954" y="348" type="curve" smooth="yes"/>
      <point x="959" y="325"/>
      <point x="962" y="298"/>
      <point x="962" y="268" type="curve"/>
      <point x="962" y="111"/>
      <point x="866" y="0"/>
      <point x="688" y="0" type="curve" smooth="yes"/>
      <point x="570" y="0"/>
      <point x="459" y="45"/>
    </contour>
    <contour>
      <point x="559" y="530" type="curve" smooth="yes"/>
      <point x="559" y="518"/>
      <point x="582" y="514"/>
      <point x="582" y="503" type="curve" smooth="yes"/>
      <point x="582" y="501"/>
      <point x="580" y="498"/>
      <point x="578" y="496" type="curve"/>
      <point x="610" y="502"/>
      <point x="648" y="507"/>
      <point x="693" y="507" type="curve" smooth="yes"/>
      <point x="780" y="507"/>
      <point x="866" y="475"/>
      <point x="913" y="412" type="curve"/>
      <point x="881" y="524"/>
      <point x="801" y="576"/>
      <point x="697" y="576" type="curve" smooth="yes"/>
      <point x="627" y="576"/>
      <point x="559" y="553"/>
    </contour>
    <contour>
      <point x="26" y="121" type="curve"/>
      <point x="40" y="115"/>
      <point x="52" y="112"/>
      <point x="62" y="112" type="curve" smooth="yes"/>
      <point x="122" y="112"/>
      <point x="127" y="196"/>
      <point x="202" y="271" type="curve"/>
      <point x="217" y="286"/>
      <point x="221" y="306"/>
      <point x="221" y="319" type="curve" smooth="yes"/>
      <point x="221" y="356"/>
      <point x="205" y="380"/>
      <point x="172" y="380" type="curve" smooth="yes"/>
      <point x="144" y="380"/>
      <point x="132" y="358"/>
      <point x="131" y="337" type="curve" smooth="yes"/>
      <point x="130" y="318"/>
      <point x="122" y="290"/>
      <point x="91" y="290" type="curve" smooth="yes"/>
      <point x="68" y="290"/>
      <point x="54" y="308"/>
      <point x="54" y="333" type="curve" smooth="yes"/>
      <point x="54" y="374"/>
      <point x="87" y="421"/>
      <point x="150" y="421" type="curve" smooth="yes"/>
      <point x="218" y="421"/>
      <point x="247" y="371"/>
      <point x="247" y="325" type="curve" smooth="yes"/>
      <point x="247" y="324"/>
      <point x="247" y="315"/>
      <point x="245" y="308" type="curve"/>
      <point x="292" y="359"/>
      <point x="387" y="424"/>
      <point x="545" y="424" type="curve" smooth="yes"/>
      <point x="556" y="424"/>
      <point x="583" y="423"/>
      <point x="605" y="420" type="curve"/>
      <point x="590" y="413"/>
      <point x="527" y="402"/>
      <point x="515" y="396" type="curve"/>
      <point x="407" y="396"/>
      <point x="310" y="340"/>
      <point x="260" y="288" type="curve"/>
      <point x="285" y="297"/>
      <point x="310" y="301"/>
      <point x="337" y="301" type="curve" smooth="yes"/>
      <point x="419" y="301"/>
      <point x="486" y="243"/>
      <point x="486" y="165" type="curve" smooth="yes"/>
      <point x="486" y="52"/>
      <point x="389" y="-1"/>
      <point x="270" y="-1" type="curve" smooth="yes"/>
      <point x="147" y="-1"/>
      <point x="65" y="40"/>
    </contour>
    <contour>
      <point x="104" y="100" type="curve"/>
      <point x="149" y="80"/>
      <point x="201" y="70"/>
      <point x="258" y="70" type="curve" smooth="yes"/>
      <point x="365" y="70"/>
      <point x="443" y="108"/>
      <point x="443" y="186" type="curve" smooth="yes"/>
      <point x="443" y="241"/>
      <point x="390" y="277"/>
      <point x="330" y="277" type="curve" smooth="yes"/>
      <point x="156" y="277"/>
      <point x="175" y="141"/>
    </contour>
  </outline>
</glyph>
<glyph name="si_NdRa" format="1">
  <advance width="525"/>
  <outline>
    <contour>
      <point x="115" y="-42" type="curve"/>
      <point x="140" y="-42" type="line"/>
      <point x="161" y="-109"/>
      <point x="205" y="-139"/>
      <point x="280" y="-139" type="curve" smooth="yes"/>
      <point x="382" y="-139"/>
      <point x="455" y="-70"/>
      <point x="455" y="50" type="curve" smooth="yes"/>
      <point x="455" y="71"/>
      <point x="455" y="64"/>
      <point x="454" y="72" type="curve"/>
      <point x="479" y="77" type="line"/>
      <point x="479" y="57"/>
      <point x="479" y="74"/>
      <point x="479" y="38" type="curve" smooth="yes"/>
      <point x="479" y="-107"/>
      <point x="395" y="-199"/>
      <point x="292" y="-199" type="curve" smooth="yes"/>
      <point x="189" y="-199"/>
      <point x="135" y="-142"/>
    </contour>
    <contour>
      <point x="112" y="165" type="curve" smooth="yes"/>
      <point x="112" y="268"/>
      <point x="184" y="310"/>
      <point x="300" y="310" type="curve" smooth="yes"/>
      <point x="417" y="310" type="line"/>
      <point x="407" y="355"/>
      <point x="379" y="387"/>
      <point x="336" y="387" type="curve" smooth="yes"/>
      <point x="317" y="387"/>
      <point x="302" y="375"/>
      <point x="293" y="357" type="curve" smooth="yes"/>
      <point x="283" y="336"/>
      <point x="268" y="328"/>
      <point x="253" y="328" type="curve" smooth="yes"/>
      <point x="229" y="328"/>
      <point x="216" y="342"/>
      <point x="216" y="363" type="curve" smooth="yes"/>
      <point x="216" y="398"/>
      <point x="255" y="423"/>
      <point x="309" y="423" type="curve" smooth="yes"/>
      <point x="393" y="423"/>
      <point x="434" y="380"/>
      <point x="452" y="287" type="curve"/>
      <point x="318" y="287" type="line" smooth="yes"/>
      <point x="232" y="287"/>
      <point x="188" y="251"/>
      <point x="188" y="169" type="curve" smooth="yes"/>
      <point x="188" y="87"/>
      <point x="256" y="26"/>
      <point x="337" y="26" type="curve" smooth="yes"/>
      <point x="382" y="26"/>
      <point x="425" y="49"/>
      <point x="457" y="90" type="curve"/>
      <point x="479" y="77" type="line"/>
      <point x="440" y="33"/>
      <point x="403" y="-1"/>
      <point x="311" y="-1" type="curve" smooth="yes"/>
      <point x="183" y="-1"/>
      <point x="112" y="67"/>
    </contour>
    <contour>
      <point x="26" y="216" type="curve" smooth="yes"/>
      <point x="26" y="329"/>
      <point x="96" y="426"/>
      <point x="260" y="426" type="curve" smooth="yes"/>
      <point x="285" y="426"/>
      <point x="314" y="426"/>
      <point x="346" y="420" type="curve"/>
      <point x="325" y="409"/>
      <point x="259" y="402"/>
      <point x="250" y="397" type="curve"/>
      <point x="168" y="397"/>
      <point x="55" y="363"/>
      <point x="55" y="213" type="curve" smooth="yes"/>
      <point x="55" y="131"/>
      <point x="84" y="71"/>
      <point x="132" y="29" type="curve"/>
      <point x="132" y="0" type="line"/>
      <point x="68" y="32"/>
      <point x="26" y="117"/>
    </contour>
  </outline>
</glyph>
<glyph name="si_NdUu" format="1">
  <advance width="525"/>
  <outline>
    <contour>
      <point x="114" y="-136" type="curve" smooth="yes"/>
      <point x="114" y="-79"/>
      <point x="162" y="-40"/>
      <point x="214" y="-40" type="curve" smooth="yes"/>
      <point x="255" y="-40"/>
      <point x="287" y="-55"/>
      <point x="309" y="-90" type="curve"/>
      <point x="279" y="-101" type="line"/>
      <point x="267" y="-82"/>
      <point x="247" y="-67"/>
      <point x="219" y="-67" type="curve" smooth="yes"/>
      <point x="181" y="-67"/>
      <point x="149" y="-91"/>
      <point x="149" y="-127" type="curve" smooth="yes"/>
      <point x="149" y="-163"/>
      <point x="177" y="-188"/>
      <point x="219" y="-188" type="curve" smooth="yes"/>
      <point x="273" y="-188"/>
      <point x="299" y="-125"/>
      <point x="375" y="-125" type="curve" smooth="yes"/>
      <point x="399" y="-125"/>
      <point x="428" y="-133"/>
      <point x="447" y="-156" type="curve"/>
      <point x="447" y="70" type="line"/>
      <point x="479" y="77" type="line"/>
      <point x="479" y="-227" type="line"/>
      <point x="457" y="-227" type="line"/>
      <point x="443" y="-190"/>
      <point x="425" y="-150"/>
      <point x="381" y="-150" type="curve" smooth="yes"/>
      <point x="306" y="-150"/>
      <point x="285" y="-232"/>
      <point x="211" y="-232" type="curve" smooth="yes"/>
      <point x="164" y="-232"/>
      <point x="114" y="-202"/>
    </contour>
    <contour>
      <point x="112" y="165" type="curve" smooth="yes"/>
      <point x="112" y="268"/>
      <point x="184" y="310"/>
      <point x="300" y="310" type="curve" smooth="yes"/>
      <point x="417" y="310" type="line"/>
      <point x="407" y="355"/>
      <point x="379" y="387"/>
      <point x="336" y="387" type="curve" smooth="yes"/>
      <point x="317" y="387"/>
      <point x="302" y="375"/>
      <point x="293" y="357" type="curve" smooth="yes"/>
      <point x="283" y="336"/>
      <point x="268" y="328"/>
      <point x="253" y="328" type="curve" smooth="yes"/>
      <point x="229" y="328"/>
      <point x="216" y="342"/>
      <point x="216" y="363" type="curve" smooth="yes"/>
      <point x="216" y="398"/>
      <point x="255" y="423"/>
      <point x="309" y="423" type="curve" smooth="yes"/>
      <point x="393" y="423"/>
      <point x="434" y="380"/>
      <point x="452" y="287" type="curve"/>
      <point x="318" y="287" type="line" smooth="yes"/>
      <point x="232" y="287"/>
      <point x="188" y="251"/>
      <point x="188" y="169" type="curve" smooth="yes"/>
      <point x="188" y="87"/>
      <point x="256" y="26"/>
      <point x="337" y="26" type="curve" smooth="yes"/>
      <point x="382" y="26"/>
      <point x="425" y="49"/>
      <point x="457" y="90" type="curve"/>
      <point x="479" y="77" type="line"/>
      <point x="440" y="33"/>
      <point x="403" y="-1"/>
      <point x="311" y="-1" type="curve" smooth="yes"/>
      <point x="183" y="-1"/>
      <point x="112" y="67"/>
    </contour>
    <contour>
      <point x="26" y="216" type="curve" smooth="yes"/>
      <point x="26" y="329"/>
      <point x="96" y="426"/>
      <point x="260" y="426" type="curve" smooth="yes"/>
      <point x="285" y="426"/>
      <point x="314" y="426"/>
      <point x="346" y="420" type="curve"/>
      <point x="325" y="409"/>
      <point x="259" y="402"/>
      <point x="250" y="397" type="curve"/>
      <point x="168" y="397"/>
      <point x="55" y="363"/>
      <point x="55" y="213" type="curve" smooth="yes"/>
      <point x="55" y="131"/>
      <point x="84" y="71"/>
      <point x="132" y="29" type="curve"/>
      <point x="132" y="0" type="line"/>
      <point x="68" y="32"/>
      <point x="26" y="117"/>
    </contour>
  </outline>
</glyph>
<glyph name="si_Nda.touch" format="1">
  <advance width="513"/>
  <outline>
    <contour>
      <point x="477" y="0" type="move" name="cursive"/>
    </contour>
    <component base="si_Nda"/>
  </outline>
</glyph>
<glyph name="si_NngUu" format="1">
  <advance width="731"/>
  <outline>
    <contour>
      <point x="442" y="-126" type="curve" smooth="yes"/>
      <point x="442" y="-91"/>
      <point x="474" y="-70"/>
      <point x="505" y="-65" type="curve"/>
      <point x="451" y="-38" type="line"/>
      <point x="536" y="-14" type="line"/>
      <point x="444" y="1" type="line"/>
      <point x="492" y="13" type="line"/>
      <point x="608" y="-7" type="line"/>
      <point x="506" y="-43" type="line"/>
      <point x="564" y="-74" type="line"/>
      <point x="537" y="-81"/>
      <point x="481" y="-83"/>
      <point x="481" y="-112" type="curve" smooth="yes"/>
      <point x="481" y="-142"/>
      <point x="522" y="-151"/>
      <point x="563" y="-151" type="curve" smooth="yes"/>
      <point x="616" y="-151"/>
      <point x="660" y="-128"/>
      <point x="660" y="-80" type="curve" smooth="yes"/>
      <point x="660" y="-75"/>
      <point x="660" y="-68"/>
      <point x="655" y="-58" type="curve"/>
      <point x="688" y="-58" type="line"/>
      <point x="692" y="-70"/>
      <point x="691" y="-81"/>
      <point x="691" y="-92" type="curve" smooth="yes"/>
      <point x="691" y="-157"/>
      <point x="642" y="-200"/>
      <point x="562" y="-200" type="curve" smooth="yes"/>
      <point x="505" y="-200"/>
      <point x="442" y="-183"/>
    </contour>
    <component base="si_Nnga"/>
  </outline>
</glyph>
<glyph name="si_NyRI" format="1">
  <advance width="1000"/>
  <outline>
    <contour>
      <point x="143" y="21" type="line"/>
      <point x="151" y="88"/>
      <point x="195" y="180"/>
      <point x="229" y="227" type="curve" smooth="yes"/>
      <point x="254" y="262"/>
      <point x="268" y="275"/>
      <point x="286" y="294" type="curve"/>
      <point x="298" y="307"/>
      <point x="311" y="323"/>
      <point x="311" y="344" type="curve" smooth="yes"/>
      <point x="311" y="365"/>
      <point x="300" y="383"/>
      <point x="276" y="383" type="curve" smooth="yes"/>
      <point x="262" y="383"/>
      <point x="241" y="375"/>
      <point x="235" y="354" type="curve" smooth="yes"/>
      <point x="228" y="332"/>
      <point x="233" y="332"/>
      <point x="226" y="315" type="curve" smooth="yes"/>
      <point x="219" y="297"/>
      <point x="204" y="290"/>
      <point x="189" y="290" type="curve" smooth="yes"/>
      <point x="156" y="290"/>
      <point x="150" y="320"/>
      <point x="150" y="332" type="curve" smooth="yes"/>
      <point x="150" y="385"/>
      <point x="199" y="423"/>
      <point x="255" y="423" type="curve" smooth="yes"/>
      <point x="304" y="423"/>
      <point x="337" y="393"/>
      <point x="337" y="348" type="curve" smooth="yes"/>
      <point x="337" y="343"/>
      <point x="337" y="338"/>
      <point x="336" y="333" type="curve"/>
      <point x="363" y="354"/>
      <point x="400" y="379"/>
      <point x="469" y="402" type="curve" smooth="yes"/>
      <point x="538" y="425"/>
      <point x="594" y="432"/>
      <point x="673" y="432" type="curve" smooth="yes"/>
      <point x="699" y="432"/>
      <point x="766" y="429"/>
      <point x="809" y="417" type="curve"/>
      <point x="708" y="404" type="line"/>
      <point x="697" y="405"/>
      <point x="677" y="405"/>
      <point x="667" y="405" type="curve" smooth="yes"/>
      <point x="619" y="405"/>
      <point x="582" y="402"/>
      <point x="551" y="396" type="curve" smooth="yes"/>
      <point x="470" y="381"/>
      <point x="409" y="357"/>
      <point x="336" y="301" type="curve"/>
      <point x="359" y="307"/>
      <point x="391" y="309"/>
      <point x="417" y="309" type="curve" smooth="yes"/>
      <point x="534" y="309"/>
      <point x="625" y="245"/>
      <point x="625" y="123" type="curve" smooth="yes"/>
      <point x="625" y="66"/>
      <point x="593" y="-1"/>
      <point x="510" y="-1" type="curve" smooth="yes"/>
      <point x="465" y="-1"/>
      <point x="432" y="20"/>
      <point x="411" y="62" type="curve"/>
      <point x="394" y="22"/>
      <point x="362" y="-1"/>
      <point x="321" y="-1" type="curve" smooth="yes"/>
      <point x="236" y="-1"/>
      <point x="239" y="71"/>
      <point x="207" y="71" type="curve" smooth="yes"/>
      <point x="186" y="71"/>
      <point x="171" y="50"/>
      <point x="168" y="11" type="curve"/>
    </contour>
    <contour>
      <point x="589" y="164" type="curve" smooth="yes"/>
      <point x="589" y="267"/>
      <point x="660" y="309"/>
      <point x="776" y="309" type="curve" smooth="yes"/>
      <point x="894" y="309" type="line"/>
      <point x="884" y="354"/>
      <point x="834" y="387"/>
      <point x="791" y="387" type="curve" smooth="yes"/>
      <point x="772" y="387"/>
      <point x="757" y="375"/>
      <point x="748" y="357" type="curve" smooth="yes"/>
      <point x="738" y="336"/>
      <point x="723" y="328"/>
      <point x="708" y="328" type="curve" smooth="yes"/>
      <point x="684" y="328"/>
      <point x="671" y="342"/>
      <point x="671" y="363" type="curve" smooth="yes"/>
      <point x="671" y="398"/>
      <point x="710" y="422"/>
      <point x="764" y="422" type="curve" smooth="yes"/>
      <point x="848" y="422"/>
      <point x="911" y="380"/>
      <point x="929" y="287" type="curve"/>
      <point x="795" y="287" type="line" smooth="yes"/>
      <point x="709" y="287"/>
      <point x="664" y="250"/>
      <point x="664" y="168" type="curve" smooth="yes"/>
      <point x="664" y="86"/>
      <point x="732" y="25"/>
      <point x="813" y="25" type="curve" smooth="yes"/>
      <point x="858" y="25"/>
      <point x="902" y="49"/>
      <point x="934" y="90" type="curve"/>
      <point x="956" y="76" type="line"/>
      <point x="917" y="32"/>
      <point x="879" y="-2"/>
      <point x="787" y="-2" type="curve" smooth="yes"/>
      <point x="659" y="-2"/>
      <point x="589" y="66"/>
    </contour>
    <contour>
      <point x="190" y="93" type="curve"/>
      <point x="196" y="96"/>
      <point x="202" y="98"/>
      <point x="209" y="98" type="curve" smooth="yes"/>
      <point x="237" y="98"/>
      <point x="260" y="69"/>
      <point x="316" y="69" type="curve" smooth="yes"/>
      <point x="366" y="69"/>
      <point x="396" y="99"/>
      <point x="396" y="158" type="curve" smooth="yes"/>
      <point x="396" y="160"/>
      <point x="396" y="157"/>
      <point x="396" y="159" type="curve"/>
      <point x="422" y="159" type="line"/>
      <point x="422" y="158"/>
      <point x="422" y="159"/>
      <point x="422" y="158" type="curve" smooth="yes"/>
      <point x="422" y="95"/>
      <point x="448" y="69"/>
      <point x="505" y="69" type="curve" smooth="yes"/>
      <point x="566" y="69"/>
      <point x="585" y="120"/>
      <point x="585" y="155" type="curve" smooth="yes"/>
      <point x="585" y="236"/>
      <point x="514" y="284"/>
      <point x="413" y="284" type="curve" smooth="yes"/>
      <point x="357" y="284"/>
      <point x="321" y="276"/>
      <point x="300" y="267" type="curve"/>
      <point x="283" y="252"/>
      <point x="264" y="229"/>
      <point x="248" y="207" type="curve" smooth="yes"/>
      <point x="220" y="167"/>
      <point x="201" y="129"/>
    </contour>
    <contour>
      <point x="593" y="506" type="curve" smooth="yes"/>
      <point x="593" y="605"/>
      <point x="681" y="654"/>
      <point x="776" y="654" type="curve" smooth="yes"/>
      <point x="871" y="654"/>
      <point x="960" y="603"/>
      <point x="960" y="506" type="curve" smooth="yes"/>
      <point x="960" y="433"/>
      <point x="898" y="396"/>
      <point x="847" y="395" type="curve"/>
      <point x="800" y="419" type="line"/>
      <point x="812" y="417"/>
      <point x="830" y="416"/>
      <point x="836" y="416" type="curve" smooth="yes"/>
      <point x="884" y="416"/>
      <point x="931" y="448"/>
      <point x="931" y="496" type="curve" smooth="yes"/>
      <point x="931" y="557"/>
      <point x="846" y="584"/>
      <point x="776" y="584" type="curve" smooth="yes"/>
      <point x="706" y="584"/>
      <point x="623" y="558"/>
      <point x="623" y="496" type="curve" smooth="yes"/>
      <point x="623" y="449"/>
      <point x="678" y="431"/>
      <point x="712" y="431" type="curve"/>
      <point x="701" y="404" type="line"/>
      <point x="648" y="410"/>
      <point x="593" y="444"/>
    </contour>
    <contour>
      <point x="592" y="-43" type="curve"/>
      <point x="616" y="-43" type="line"/>
      <point x="637" y="-110"/>
      <point x="682" y="-140"/>
      <point x="757" y="-140" type="curve" smooth="yes"/>
      <point x="859" y="-140"/>
      <point x="932" y="-71"/>
      <point x="932" y="49" type="curve" smooth="yes"/>
      <point x="932" y="70"/>
      <point x="932" y="64"/>
      <point x="931" y="72" type="curve"/>
      <point x="956" y="76" type="line"/>
      <point x="956" y="56"/>
      <point x="956" y="73"/>
      <point x="956" y="37" type="curve" smooth="yes"/>
      <point x="956" y="-108"/>
      <point x="872" y="-200"/>
      <point x="769" y="-200" type="curve" smooth="yes"/>
      <point x="666" y="-200"/>
      <point x="612" y="-143"/>
    </contour>
    <contour>
      <point x="26" y="216" type="curve" smooth="yes"/>
      <point x="26" y="345"/>
      <point x="97" y="424"/>
      <point x="233" y="424" type="curve" smooth="yes"/>
      <point x="242" y="424"/>
      <point x="265" y="424"/>
      <point x="286" y="418" type="curve"/>
      <point x="265" y="407"/>
      <point x="190" y="397"/>
      <point x="173" y="391" type="curve"/>
      <point x="100" y="373"/>
      <point x="55" y="312"/>
      <point x="55" y="213" type="curve" smooth="yes"/>
      <point x="55" y="134"/>
      <point x="81" y="73"/>
      <point x="132" y="29" type="curve"/>
      <point x="132" y="0" type="line"/>
      <point x="68" y="32"/>
      <point x="26" y="117"/>
    </contour>
  </outline>
</glyph>
<glyph name="si_NyR.halant" format="1">
  <advance width="1000"/>
  <outline>
    <contour>
      <point x="826" y="403" type="line"/>
      <point x="826" y="664" type="line"/>
      <point x="879" y="623"/>
      <point x="973" y="618"/>
      <point x="973" y="528" type="curve" smooth="yes"/>
      <point x="973" y="485"/>
      <point x="938" y="456"/>
      <point x="896" y="456" type="curve" smooth="yes"/>
      <point x="881" y="456"/>
      <point x="869" y="459"/>
      <point x="854" y="466" type="curve"/>
      <point x="854" y="387" type="line"/>
    </contour>
    <contour>
      <point x="854" y="490" type="line"/>
      <point x="863" y="485"/>
      <point x="872" y="483"/>
      <point x="885" y="483" type="curve" smooth="yes"/>
      <point x="922" y="483"/>
      <point x="938" y="508"/>
      <point x="938" y="531" type="curve" smooth="yes"/>
      <point x="938" y="572"/>
      <point x="900" y="592"/>
      <point x="854" y="622" type="curve"/>
    </contour>
    <component base="si_NyRa"/>
  </outline>
</glyph>
<glyph name="si_PRI" format="1">
  <advance width="601"/>
  <outline>
    <contour>
      <point x="66" y="506" type="curve" smooth="yes"/>
      <point x="66" y="611"/>
      <point x="177" y="655"/>
      <point x="293" y="655" type="curve" smooth="yes"/>
      <point x="409" y="655"/>
      <point x="520" y="611"/>
      <point x="520" y="506" type="curve" smooth="yes"/>
      <point x="520" y="433"/>
      <point x="455" y="399"/>
      <point x="380" y="396" type="curve"/>
      <point x="380" y="416" type="line"/>
      <point x="433" y="419"/>
      <point x="486" y="443"/>
      <point x="486" y="497" type="curve" smooth="yes"/>
      <point x="486" y="566"/>
      <point x="380" y="584"/>
      <point x="293" y="584" type="curve" smooth="yes"/>
      <point x="206" y="584"/>
      <point x="100" y="566"/>
      <point x="100" y="497" type="curve" smooth="yes"/>
      <point x="100" y="443"/>
      <point x="153" y="419"/>
      <point x="206" y="416" type="curve"/>
      <point x="206" y="396" type="line"/>
      <point x="131" y="399"/>
      <point x="66" y="433"/>
    </contour>
    <contour>
      <point x="49" y="-43" type="curve"/>
      <point x="77" y="-43" type="line"/>
      <point x="110" y="-116"/>
      <point x="180" y="-153"/>
      <point x="280" y="-153" type="curve" smooth="yes"/>
      <point x="416" y="-153"/>
      <point x="529" y="-88"/>
      <point x="529" y="49" type="curve" smooth="yes"/>
      <point x="529" y="70"/>
      <point x="525" y="96"/>
      <point x="512" y="109" type="curve"/>
      <point x="527" y="137" type="line"/>
      <point x="548" y="105"/>
      <point x="558" y="73"/>
      <point x="558" y="37" type="curve" smooth="yes"/>
      <point x="558" y="-121"/>
      <point x="432" y="-214"/>
      <point x="295" y="-214" type="curve" smooth="yes"/>
      <point x="169" y="-214"/>
      <point x="84" y="-149"/>
    </contour>
    <component base="si_Pa"/>
  </outline>
</glyph>
<glyph name="si_Pa.touch" format="1">
  <advance width="601"/>
  <outline>
    <contour>
      <point x="561" y="0" type="move" name="cursive"/>
    </contour>
    <component base="si_Pa"/>
  </outline>
</glyph>
<glyph name="si_Pha.reph" format="1">
  <advance width="569"/>
  <outline>
    <contour>
      <point x="124" y="499" type="curve" smooth="yes"/>
      <point x="124" y="478"/>
      <point x="141" y="463"/>
      <point x="162" y="463" type="curve" smooth="yes"/>
      <point x="183" y="463"/>
      <point x="200" y="478"/>
      <point x="200" y="499" type="curve" smooth="yes"/>
      <point x="200" y="520"/>
      <point x="183" y="535"/>
      <point x="162" y="535" type="curve" smooth="yes"/>
      <point x="141" y="535"/>
      <point x="124" y="520"/>
    </contour>
    <contour>
      <point x="27" y="518" type="curve" smooth="yes"/>
      <point x="27" y="580"/>
      <point x="82" y="616"/>
      <point x="159" y="616" type="curve" smooth="yes"/>
      <point x="231" y="616"/>
      <point x="291" y="574"/>
      <point x="291" y="505" type="curve" smooth="yes"/>
      <point x="291" y="482"/>
      <point x="284" y="460"/>
      <point x="268" y="441" type="curve"/>
      <point x="236" y="441" type="line"/>
      <point x="249" y="453"/>
      <point x="263" y="478"/>
      <point x="263" y="504" type="curve" smooth="yes"/>
      <point x="263" y="560"/>
      <point x="216" y="590"/>
      <point x="158" y="590" type="curve" smooth="yes"/>
      <point x="108" y="590"/>
      <point x="57" y="570"/>
      <point x="57" y="518" type="curve" smooth="yes"/>
      <point x="57" y="480"/>
      <point x="96" y="461"/>
      <point x="117" y="459" type="curve"/>
      <point x="109" y="465"/>
      <point x="98" y="479"/>
      <point x="98" y="500" type="curve" smooth="yes"/>
      <point x="98" y="534"/>
      <point x="128" y="559"/>
      <point x="161" y="559" type="curve" smooth="yes"/>
      <point x="199" y="559"/>
      <point x="226" y="532"/>
      <point x="226" y="498" type="curve" smooth="yes"/>
      <point x="226" y="460"/>
      <point x="194" y="435"/>
      <point x="139" y="435" type="curve" smooth="yes"/>
      <point x="83" y="435"/>
      <point x="27" y="463"/>
    </contour>
    <contour>
      <point x="32" y="161" type="curve" smooth="yes"/>
      <point x="32" y="263"/>
      <point x="114" y="302"/>
      <point x="224" y="302" type="curve" smooth="yes"/>
      <point x="243" y="302" type="line"/>
      <point x="243" y="304"/>
      <point x="243" y="306"/>
      <point x="243" y="308" type="curve" smooth="yes"/>
      <point x="243" y="350"/>
      <point x="214" y="386"/>
      <point x="178" y="386" type="curve" smooth="yes"/>
      <point x="140" y="386"/>
      <point x="129" y="363"/>
      <point x="123" y="347" type="curve" smooth="yes"/>
      <point x="116" y="328"/>
      <point x="107" y="315"/>
      <point x="86" y="315" type="curve" smooth="yes"/>
      <point x="70" y="315"/>
      <point x="51" y="326"/>
      <point x="51" y="351" type="curve" smooth="yes"/>
      <point x="51" y="397"/>
      <point x="99" y="422"/>
      <point x="153" y="422" type="curve" smooth="yes"/>
      <point x="239" y="422"/>
      <point x="274" y="355"/>
      <point x="274" y="290" type="curve" smooth="yes"/>
      <point x="274" y="287"/>
      <point x="274" y="280"/>
      <point x="274" y="277" type="curve"/>
      <point x="216" y="277" type="line" smooth="yes"/>
      <point x="125" y="277"/>
      <point x="68" y="240"/>
      <point x="68" y="176" type="curve" smooth="yes"/>
      <point x="68" y="92"/>
      <point x="173" y="69"/>
      <point x="261" y="69" type="curve" smooth="yes"/>
      <point x="410" y="69"/>
      <point x="489" y="145"/>
      <point x="489" y="275" type="curve" smooth="yes"/>
      <point x="489" y="321"/>
      <point x="481" y="370"/>
      <point x="466" y="402" type="curve"/>
      <point x="456" y="374"/>
      <point x="437" y="351"/>
      <point x="395" y="351" type="curve" smooth="yes"/>
      <point x="340" y="351"/>
      <point x="307" y="405"/>
      <point x="307" y="469" type="curve" smooth="yes"/>
      <point x="307" y="518"/>
      <point x="322" y="553"/>
      <point x="348" y="583" type="curve"/>
      <point x="408" y="551"/>
      <point x="459" y="484"/>
      <point x="487" y="420" type="curve" smooth="yes"/>
      <point x="509" y="369"/>
      <point x="521" y="317"/>
      <point x="521" y="250" type="curve" smooth="yes"/>
      <point x="521" y="112"/>
      <point x="437" y="0"/>
      <point x="258" y="0" type="curve" smooth="yes"/>
      <point x="140" y="0"/>
      <point x="32" y="45"/>
    </contour>
    <contour>
      <point x="336" y="473" type="curve" smooth="yes"/>
      <point x="336" y="425"/>
      <point x="353" y="386"/>
      <point x="401" y="386" type="curve" smooth="yes"/>
      <point x="424" y="386"/>
      <point x="446" y="404"/>
      <point x="450" y="435" type="curve"/>
      <point x="426" y="480"/>
      <point x="392" y="520"/>
      <point x="355" y="547" type="curve"/>
      <point x="343" y="529"/>
      <point x="336" y="507"/>
    </contour>
  </outline>
</glyph>
<glyph name="si_SI" format="1">
  <advance width="661"/>
  <outline>
    <contour>
      <point x="99" y="506" type="curve" smooth="yes"/>
      <point x="99" y="611"/>
      <point x="209" y="655"/>
      <point x="325" y="655" type="curve" smooth="yes"/>
      <point x="441" y="655"/>
      <point x="552" y="611"/>
      <point x="552" y="506" type="curve" smooth="yes"/>
      <point x="552" y="433"/>
      <point x="487" y="399"/>
      <point x="412" y="396" type="curve"/>
      <point x="438" y="419" type="line"/>
      <point x="468" y="426"/>
      <point x="519" y="443"/>
      <point x="519" y="497" type="curve" smooth="yes"/>
      <point x="519" y="566"/>
      <point x="412" y="584"/>
      <point x="325" y="584" type="curve" smooth="yes"/>
      <point x="238" y="584"/>
      <point x="132" y="566"/>
      <point x="132" y="497" type="curve" smooth="yes"/>
      <point x="132" y="443"/>
      <point x="185" y="424"/>
      <point x="215" y="418" type="curve"/>
      <point x="238" y="396" type="line"/>
      <point x="163" y="399"/>
      <point x="99" y="433"/>
    </contour>
    <component base="si_Sa"/>
  </outline>
</glyph>
<glyph name="si_ShRa" format="1">
  <advance width="616"/>
  <outline>
    <contour>
      <point x="33" y="201" type="curve" smooth="yes"/>
      <point x="33" y="326"/>
      <point x="105" y="422"/>
      <point x="229" y="422" type="curve" smooth="yes"/>
      <point x="233" y="422"/>
      <point x="242" y="421"/>
      <point x="245" y="421" type="curve"/>
      <point x="245" y="398" type="line"/>
      <point x="241" y="398"/>
      <point x="236" y="398"/>
      <point x="232" y="398" type="curve" smooth="yes"/>
      <point x="136" y="398"/>
      <point x="65" y="332"/>
      <point x="65" y="225" type="curve" smooth="yes"/>
      <point x="65" y="143"/>
      <point x="109" y="68"/>
      <point x="197" y="68" type="curve" smooth="yes"/>
      <point x="248" y="68"/>
      <point x="302" y="97"/>
      <point x="302" y="153" type="curve" smooth="yes"/>
      <point x="302" y="192"/>
      <point x="283" y="213"/>
      <point x="253" y="213" type="curve" smooth="yes"/>
      <point x="247" y="213"/>
      <point x="239" y="212"/>
      <point x="231" y="206" type="curve"/>
      <point x="229" y="201"/>
      <point x="229" y="193"/>
      <point x="228" y="188" type="curve"/>
      <point x="203" y="188" type="line"/>
      <point x="217" y="321"/>
      <point x="270" y="422"/>
      <point x="390" y="422" type="curve" smooth="yes"/>
      <point x="511" y="422"/>
      <point x="568" y="304"/>
      <point x="568" y="191" type="curve" smooth="yes"/>
      <point x="568" y="125"/>
      <point x="545" y="36"/>
      <point x="517" y="1" type="curve"/>
      <point x="490" y="1" type="line"/>
      <point x="493" y="6"/>
      <point x="495" y="10"/>
      <point x="495" y="14" type="curve" smooth="yes"/>
      <point x="495" y="21"/>
      <point x="491" y="23"/>
      <point x="484" y="23" type="curve" smooth="yes"/>
      <point x="463" y="23"/>
      <point x="454" y="-3"/>
      <point x="417" y="-3" type="curve" smooth="yes"/>
      <point x="381" y="-3"/>
      <point x="358" y="35"/>
      <point x="358" y="73" type="curve" smooth="yes"/>
      <point x="358" y="135"/>
      <point x="404" y="180"/>
      <point x="473" y="180" type="curve" smooth="yes"/>
      <point x="490" y="180"/>
      <point x="510" y="176"/>
      <point x="521" y="172" type="curve"/>
      <point x="521" y="266"/>
      <point x="465" y="361"/>
      <point x="374" y="361" type="curve" smooth="yes"/>
      <point x="300" y="361"/>
      <point x="246" y="306"/>
      <point x="234" y="232" type="curve"/>
      <point x="241" y="235"/>
      <point x="249" y="236"/>
      <point x="256" y="236" type="curve" smooth="yes"/>
      <point x="303" y="236"/>
      <point x="335" y="203"/>
      <point x="335" y="135" type="curve" smooth="yes"/>
      <point x="335" y="61"/>
      <point x="282" y="-1"/>
      <point x="193" y="-1" type="curve" smooth="yes"/>
      <point x="89" y="-1"/>
      <point x="33" y="90"/>
    </contour>
    <contour>
      <point x="389" y="77" type="curve" smooth="yes"/>
      <point x="389" y="50"/>
      <point x="399" y="26"/>
      <point x="423" y="26" type="curve" smooth="yes"/>
      <point x="447" y="26"/>
      <point x="468" y="52"/>
      <point x="488" y="52" type="curve" smooth="yes"/>
      <point x="496" y="52"/>
      <point x="504" y="48"/>
      <point x="507" y="41" type="curve"/>
      <point x="516" y="63"/>
      <point x="519" y="94"/>
      <point x="521" y="119" type="curve" smooth="yes"/>
      <point x="522" y="128"/>
      <point x="521" y="137"/>
      <point x="521" y="144" type="curve"/>
      <point x="507" y="152"/>
      <point x="492" y="154"/>
      <point x="471" y="154" type="curve" smooth="yes"/>
      <point x="422" y="154"/>
      <point x="389" y="122"/>
    </contour>
    <contour>
      <point x="55" y="-43" type="curve"/>
      <point x="81" y="-43" type="line"/>
      <point x="115" y="-116"/>
      <point x="183" y="-153"/>
      <point x="286" y="-153" type="curve" smooth="yes"/>
      <point x="426" y="-153"/>
      <point x="541" y="-88"/>
      <point x="541" y="49" type="curve" smooth="yes"/>
      <point x="541" y="70"/>
      <point x="536" y="91"/>
      <point x="529" y="100" type="curve"/>
      <point x="542" y="130" type="line"/>
      <point x="560" y="104"/>
      <point x="568" y="73"/>
      <point x="568" y="37" type="curve" smooth="yes"/>
      <point x="568" y="-121"/>
      <point x="443" y="-214"/>
      <point x="302" y="-214" type="curve" smooth="yes"/>
      <point x="172" y="-214"/>
      <point x="91" y="-149"/>
    </contour>
  </outline>
</glyph>
<glyph name="si_Sh.halant" format="1">
  <advance width="616"/>
  <outline>
    <contour>
      <point x="422" y="378" type="line"/>
      <point x="422" y="665" type="line"/>
      <point x="475" y="624"/>
      <point x="568" y="619"/>
      <point x="568" y="529" type="curve" smooth="yes"/>
      <point x="568" y="486"/>
      <point x="534" y="457"/>
      <point x="492" y="457" type="curve" smooth="yes"/>
      <point x="477" y="457"/>
      <point x="462" y="460"/>
      <point x="447" y="467" type="curve"/>
      <point x="447" y="361" type="line"/>
    </contour>
    <contour>
      <point x="447" y="491" type="line"/>
      <point x="456" y="486"/>
      <point x="467" y="484"/>
      <point x="480" y="484" type="curve" smooth="yes"/>
      <point x="517" y="484"/>
      <point x="531" y="509"/>
      <point x="531" y="532" type="curve" smooth="yes"/>
      <point x="531" y="573"/>
      <point x="493" y="593"/>
      <point x="447" y="623" type="curve"/>
    </contour>
    <component base="si_Sha"/>
  </outline>
</glyph>
<glyph name="si_ThU" format="1">
  <advance width="599"/>
  <outline>
    <contour>
      <point x="52" y="-139" type="curve" smooth="yes"/>
      <point x="52" y="-88"/>
      <point x="97" y="-49"/>
      <point x="151" y="-49" type="curve" smooth="yes"/>
      <point x="192" y="-49"/>
      <point x="228" y="-72"/>
      <point x="243" y="-107" type="curve"/>
      <point x="214" y="-119" type="line"/>
      <point x="207" y="-99"/>
      <point x="183" y="-78"/>
      <point x="151" y="-78" type="curve" smooth="yes"/>
      <point x="115" y="-78"/>
      <point x="85" y="-104"/>
      <point x="85" y="-139" type="curve" smooth="yes"/>
      <point x="85" y="-167"/>
      <point x="108" y="-194"/>
      <point x="172" y="-194" type="curve" smooth="yes"/>
      <point x="512" y="-194" type="line"/>
      <point x="512" y="125" type="line"/>
      <point x="544" y="214" type="line"/>
      <point x="544" y="-229" type="line"/>
      <point x="155" y="-229" type="line" smooth="yes"/>
      <point x="88" y="-229"/>
      <point x="52" y="-182"/>
    </contour>
    <component base="si_Tha"/>
  </outline>
</glyph>
<glyph name="si_TtUu" format="1">
  <advance width="588"/>
  <outline>
    <contour>
      <point x="45" y="-135" type="curve" smooth="yes"/>
      <point x="45" y="-78"/>
      <point x="93" y="-39"/>
      <point x="145" y="-39" type="curve" smooth="yes"/>
      <point x="186" y="-39"/>
      <point x="217" y="-54"/>
      <point x="239" y="-89" type="curve"/>
      <point x="210" y="-100" type="line"/>
      <point x="198" y="-81"/>
      <point x="177" y="-66"/>
      <point x="149" y="-66" type="curve" smooth="yes"/>
      <point x="111" y="-66"/>
      <point x="80" y="-90"/>
      <point x="80" y="-126" type="curve" smooth="yes"/>
      <point x="80" y="-162"/>
      <point x="110" y="-187"/>
      <point x="152" y="-187" type="curve" smooth="yes"/>
      <point x="234" y="-187"/>
      <point x="300" y="-114"/>
      <point x="393" y="-114" type="curve" smooth="yes"/>
      <point x="440" y="-114"/>
      <point x="476" y="-133"/>
      <point x="502" y="-164" type="curve"/>
      <point x="502" y="148" type="line"/>
      <point x="535" y="207" type="line"/>
      <point x="535" y="-226" type="line"/>
      <point x="512" y="-226" type="line"/>
      <point x="497" y="-191"/>
      <point x="459" y="-141"/>
      <point x="396" y="-141" type="curve" smooth="yes"/>
      <point x="307" y="-141"/>
      <point x="249" y="-231"/>
      <point x="153" y="-231" type="curve" smooth="yes"/>
      <point x="99" y="-231"/>
      <point x="45" y="-201"/>
    </contour>
    <component base="si_Tta"/>
  </outline>
</glyph>
<glyph name="si_Tth.halant" format="1">
  <advance width="616"/>
  <outline>
    <contour>
      <point x="32" y="190" type="curve" smooth="yes"/>
      <point x="32" y="281"/>
      <point x="84" y="356"/>
      <point x="148" y="378" type="curve" smooth="yes"/>
      <point x="169" y="385"/>
      <point x="192" y="389"/>
      <point x="216" y="389" type="curve"/>
      <point x="216" y="364" type="line"/>
      <point x="213" y="364"/>
      <point x="209" y="364"/>
      <point x="206" y="364" type="curve" smooth="yes"/>
      <point x="129" y="364"/>
      <point x="65" y="294"/>
      <point x="65" y="207" type="curve" smooth="yes"/>
      <point x="65" y="133"/>
      <point x="113" y="69"/>
      <point x="184" y="69" type="curve" smooth="yes"/>
      <point x="234" y="69"/>
      <point x="283" y="90"/>
      <point x="283" y="152" type="curve" smooth="yes"/>
      <point x="283" y="191" type="line"/>
      <point x="311" y="191" type="line"/>
      <point x="311" y="152" type="line" smooth="yes"/>
      <point x="311" y="90"/>
      <point x="359" y="69"/>
      <point x="407" y="69" type="curve" smooth="yes"/>
      <point x="501" y="69"/>
      <point x="542" y="154"/>
      <point x="542" y="241" type="curve" smooth="yes"/>
      <point x="542" y="321"/>
      <point x="501" y="381"/>
      <point x="473" y="413" type="curve"/>
      <point x="458" y="379"/>
      <point x="429" y="358"/>
      <point x="387" y="358" type="curve" smooth="yes"/>
      <point x="325" y="358"/>
      <point x="289" y="413"/>
      <point x="289" y="477" type="curve" smooth="yes"/>
      <point x="289" y="516"/>
      <point x="304" y="561"/>
      <point x="330" y="591" type="curve"/>
      <point x="390" y="561"/>
      <point x="453" y="491"/>
      <point x="494" y="436" type="curve" smooth="yes"/>
      <point x="544" y="369"/>
      <point x="575" y="313"/>
      <point x="575" y="227" type="curve" smooth="yes"/>
      <point x="575" y="127"/>
      <point x="535" y="0"/>
      <point x="412" y="0" type="curve" smooth="yes"/>
      <point x="364" y="0"/>
      <point x="325" y="20"/>
      <point x="296" y="58" type="curve"/>
      <point x="266" y="20"/>
      <point x="230" y="0"/>
      <point x="186" y="0" type="curve" smooth="yes"/>
      <point x="86" y="0"/>
      <point x="32" y="93"/>
    </contour>
    <contour>
      <point x="318" y="480" type="curve" smooth="yes"/>
      <point x="318" y="432"/>
      <point x="338" y="394"/>
      <point x="394" y="394" type="curve" smooth="yes"/>
      <point x="417" y="394"/>
      <point x="444" y="405"/>
      <point x="454" y="438" type="curve"/>
      <point x="425" y="483"/>
      <point x="376" y="528"/>
      <point x="339" y="555" type="curve"/>
      <point x="327" y="537"/>
      <point x="318" y="514"/>
    </contour>
    <contour>
      <point x="462" y="539" type="line"/>
      <point x="468" y="536"/>
      <point x="483" y="533"/>
      <point x="494" y="533" type="curve" smooth="yes"/>
      <point x="523" y="533"/>
      <point x="546" y="546"/>
      <point x="546" y="581" type="curve" smooth="yes"/>
      <point x="546" y="636"/>
      <point x="483" y="652"/>
      <point x="462" y="669" type="curve"/>
    </contour>
    <contour>
      <point x="435" y="501" type="line"/>
      <point x="435" y="713" type="line"/>
      <point x="490" y="667"/>
      <point x="586" y="671"/>
      <point x="586" y="580" type="curve" smooth="yes"/>
      <point x="586" y="541"/>
      <point x="557" y="509"/>
      <point x="511" y="509" type="curve" smooth="yes"/>
      <point x="488" y="509"/>
      <point x="471" y="514"/>
      <point x="462" y="517" type="curve"/>
      <point x="462" y="463" type="line"/>
    </contour>
  </outline>
</glyph>
<glyph name="si_VU" format="1">
  <advance width="583"/>
  <outline>
    <contour>
      <point x="43" y="-139" type="curve" smooth="yes"/>
      <point x="43" y="-88"/>
      <point x="89" y="-49"/>
      <point x="143" y="-49" type="curve" smooth="yes"/>
      <point x="184" y="-49"/>
      <point x="219" y="-72"/>
      <point x="234" y="-107" type="curve"/>
      <point x="205" y="-119" type="line"/>
      <point x="198" y="-99"/>
      <point x="175" y="-78"/>
      <point x="143" y="-78" type="curve" smooth="yes"/>
      <point x="107" y="-78"/>
      <point x="76" y="-104"/>
      <point x="76" y="-139" type="curve" smooth="yes"/>
      <point x="76" y="-167"/>
      <point x="98" y="-194"/>
      <point x="162" y="-194" type="curve" smooth="yes"/>
      <point x="493" y="-194" type="line"/>
      <point x="493" y="125" type="line"/>
      <point x="525" y="214" type="line"/>
      <point x="525" y="-229" type="line"/>
      <point x="146" y="-229" type="line" smooth="yes"/>
      <point x="79" y="-229"/>
      <point x="43" y="-182"/>
    </contour>
    <component base="si_Va"/>
  </outline>
</glyph>
